 <svg class="busimg" xmlns="http://www.w3.org/2000/svg" width="182.986" height="119.717"
                viewBox="0 0 182.986 119.717">
                <g id="bus" transform="translate(2.5 2.5)">
                    <path id="Path_143" data-name="Path 143"
                        d="M177.986,164v15.643a15.622,15.622,0,0,1-15.643,15.643H15.643A15.622,15.622,0,0,1,0,179.645V117.072A26.082,26.082,0,0,1,26.072,91H145.448a15.522,15.522,0,0,1,13.974,8.656l6.153,12.2H152.468s-.45,27.376,4.66,36.5,20.441,5.214,20.441,5.214c.208,2.19.417,4.38.417,6.466Z"
                        transform="translate(0 -91)" fill="none" stroke="#74ceeb" stroke-width="5" />
                    <g id="Group_52" data-name="Group 52" transform="translate(20.858 20.858)">
                        <path id="Path_145" data-name="Path 145"
                            d="M247.2,151H215.214A5.163,5.163,0,0,0,210,156.214V187.5a5.164,5.164,0,0,0,5.214,5.214H247.2a5.164,5.164,0,0,0,5.214-5.214V156.214A5.163,5.163,0,0,0,247.2,151Z"
                            transform="translate(-157.856 -151)" fill="none" stroke="#74ceeb" stroke-width="5" />
                        <path id="Path_146" data-name="Path 146"
                            d="M96.5,192.715H65.214A5.211,5.211,0,0,1,60,187.5V156.214A5.211,5.211,0,0,1,65.214,151H96.5a5.211,5.211,0,0,1,5.214,5.214V187.5A5.211,5.211,0,0,1,96.5,192.715Z"
                            transform="translate(-60 -151)" fill="none" stroke="#74ceeb" stroke-width="5" />
                    </g>
                    <path id="Path_147" data-name="Path 147"
                        d="M401.724,151h-34.51A5.211,5.211,0,0,0,362,156.214V187.5a5.211,5.211,0,0,0,5.214,5.214h46.548C412.319,171.084,402.12,152.052,401.724,151Z"
                        transform="translate(-236.159 -130.142)" fill="none" stroke="#74ceeb" stroke-width="5" />
                    <path id="Path_148" data-name="Path 148"
                        d="M452,306.214a5.211,5.211,0,0,0,5.214,5.214h15.643V301H457.214A5.211,5.211,0,0,0,452,306.214Z"
                        transform="translate(-294.872 -227.998)" fill="none" stroke="#74ceeb" stroke-width="5" />
                    <path id="Path_149" data-name="Path 149"
                        d="M20.858,306.214A5.211,5.211,0,0,0,15.643,301H0v10.429H15.643A5.211,5.211,0,0,0,20.858,306.214Z"
                        transform="translate(0 -227.998)" fill="none" stroke="#74ceeb" stroke-width="5" />
                    <path id="Path_150" data-name="Path 150"
                        d="M80.858,301a20.858,20.858,0,1,0,20.858,20.858A20.919,20.919,0,0,0,80.858,301Z"
                        transform="translate(-39.142 -227.998)" fill="#fff" stroke="#74ceeb" stroke-width="5" />
                    <path id="Path_151" data-name="Path 151"
                        d="M100.429,331a10.429,10.429,0,1,0,10.429,10.429A10.46,10.46,0,0,0,100.429,331Z"
                        transform="translate(-58.713 -247.569)" fill="none" stroke="#74ceeb" stroke-width="5" />
                    <path id="Path_152" data-name="Path 152"
                        d="M352.858,301a20.858,20.858,0,1,0,20.858,20.858A20.919,20.919,0,0,0,352.858,301Z"
                        transform="translate(-216.588 -227.998)" fill="#fff" stroke="#74ceeb" stroke-width="5" />
                    <path id="Path_153" data-name="Path 153"
                        d="M372.429,331a10.429,10.429,0,1,0,10.429,10.429A10.46,10.46,0,0,0,372.429,331Z"
                        transform="translate(-236.159 -247.569)" fill="none" stroke="#74ceeb" stroke-width="5" />
                </g>
            </svg>