         <svg  xmlns="http://www.w3.org/2000/svg" width="1568.905" height="534.475"
                    viewBox="0 0 1568.905 534.475">
                    <g id="MAP" transform="translate(-75.538 -234.04)">
                        <g id="陽光加州公寓" class="filter">
                            <path id="Path_2" data-name="Path 2"
                                d="M615.6,521.8c-.7-5-.8-10-1.4-15.1-.3-2.5-.5-6.2-2-8.7l-.6-.6a3.135,3.135,0,0,0-3.1-.6c-1.1.3-2.3.4-3.5.6a4.1,4.1,0,0,1-1.1.1,35.022,35.022,0,0,1-4.5.7c-3.6.4-7.2.6-10.8,1-1.1.1-2.1.3-3.2.4a.367.367,0,0,0-.3.1c-.5.1-1,.3-1.6.4-1.1.2-2.2.6-3.3.9h-.1c-.1,0-.2.1-.4.1-.1.1-.3.2-.4.4a.52.52,0,0,0-.2.4v1.8h0a20.68,20.68,0,0,0,.4,2.2v.4a40.485,40.485,0,0,0,5.9,14.6c3.7,5.8,7.6,11.3,9,18.2a3.112,3.112,0,0,0,2,2.3c4.2-.6,8.4-1.4,12.5-2.4,1.6-.4,3.1-.7,4.7-1.1a6.912,6.912,0,0,0,2-3C617.1,530.7,616.2,526,615.6,521.8Z"
                                fill="#fcd3d9" stroke="#929292" stroke-width="0.3" />
                            <path id="Path_3" data-name="Path 3"
                                d="M557.8,545.3c-.1-1.4-.3-2.7-.3-4.1a40.278,40.278,0,0,0-.3-4.9c-.4-3.5-1-7-1.7-10.4-1.1-5.7-2.4-11.3-3.1-17.1a3.764,3.764,0,0,0-2.6-3.4,28.559,28.559,0,0,0-12-.5c-4.2.6-8.5.6-12.7,1.4-2,.4-2.4,2-2.4,3.9.1,3-.1,6-.1,9,.1,3,.3,6,.3,9.1.1,6-1.3,12-1.4,18.1a3.42,3.42,0,0,0,2.5,3.3c5.7,1,11.5,1.3,17.3,1.9,4.2.4,11.1,2.3,14.7-.4,1.6-1.1,1.7-3,1.6-4.8A2.556,2.556,0,0,0,557.8,545.3Z"
                                fill="#fcd3d9" stroke="#929292" stroke-width="0.3" />
                            <path id="Path_4" data-name="Path 4"
                                d="M588.5,462.7l-.3-.9c-.7-2.2-1.3-4.5-2.1-6.7a33.432,33.432,0,0,0-3.5-7.4,26,26,0,0,0-2.6-3.2c-1.1-1.1-2.4-1.2-3.9-1.2-3.9,0-7.6.9-11.5,1.5-4.4.7-8.8,1.2-13.2,1.9-4.6.7-9.1,2-13.7,2.7s-9.3,1-13.8,2.2a4.055,4.055,0,0,0-.9.5,6.268,6.268,0,0,0-1.9,1.7c-1.1,1.6-.6,3.9-.4,5.8a41.533,41.533,0,0,0,1.4,6.1,100.337,100.337,0,0,0,5,11.7c.8,1.6,1.5,3.2,2.2,4.8,1.9,4.6,3.6,10.2,6.5,14.3,2,2.9,5.5,2.8,8.8,2.6,5.2-.4,10.1-2.4,15.2-3.4a124.884,124.884,0,0,1,15.1-2.3c5.5-.5,13.9.7,17.9-4a3.3,3.3,0,0,0,1.4-2.1C595.9,478.6,591.1,470.6,588.5,462.7Z"
                                fill="#fcd3d9" stroke="#929292" stroke-width="0.3" />
                        </g>
                        <g id="大華中學" class="school">
                            <path id="Path_5" data-name="Path 5"
                                d="M477,618.4c-6.6-4.1-14.5-5.6-22.2-6.1-8.8-.6-17.5-2-26.3-2.2-9.2-.2-18.3,1.3-27.4,2.7-9,1.4-18,2.2-27,3.2-19.3,2.2-38.6,4.3-58.1,5.2a4.87,4.87,0,0,0-1.2.1c-7.3.4-14.5.8-21.8,1.4-6.5.6-13,1.8-19.5,2.7a22.1,22.1,0,0,0-3.7.8c-3.4,1.5-6.3,4.4-9.7,6.2-4.3,2.2-8.8,3.9-13,6.1-7.7,4-15.3,8.2-23,12.2-16.5,8.5-33.1,16.7-50,24.3-7.6,3.4-15.5,5.7-23.1,9-7.4,3.2-14,7.8-21.7,10.1a3.053,3.053,0,0,0-2.2,2.2,6.613,6.613,0,0,0-.8,4.6,2.769,2.769,0,0,0,.1.9c2.4,12.2,6.5,23.4,10.6,35,3.3,9.4,6,19,9.3,28.3a5.016,5.016,0,0,0,2.1,2.8,4.918,4.918,0,0,0,2.1.4c8.9.6,17.6-1.9,26.2-3.8,12.5-2.8,25.3-3.6,37.8-5.9,12.8-2.3,25.5-5.2,38.3-7.9,17.6-3.7,35.7-5.6,53.2-9.4,12.4-2.7,22.9-10.3,34.9-14.3,7.4-2.5,15.3-2.9,23-2.2,3.4.3,6.8.8,10.2,1.4,3.2.6,6.6,2.8,10,1.8a12.143,12.143,0,0,0,2-.9,143.166,143.166,0,0,1,21.7-9.3c7.9-2.6,16.3-2.3,24.5-2.3,3.3,0,6.8-.1,9.5-2a4.566,4.566,0,0,0,2-2.9c.3-1.7-.7-3.4-1.7-4.9a75.125,75.125,0,0,1-8.9-19.8c-1.9-6.6-4.1-15-2.6-21.8,1.1-5.1,8.5-4.4,12.4-4.3,7.6.3,15.2,1,22.7,1.7a5.464,5.464,0,0,0,4-.9c3-2.5,4.2-9.3,5.4-12.8a133.534,133.534,0,0,1,5.3-15C482.7,627.3,482.7,621.9,477,618.4Z"
                                fill="#f0e8ff" stroke="#929292" stroke-width="0.3" />
                        </g>
                        <g id="網球場">
                            <path id="Path_6" data-name="Path 6"
                                d="M1236.4,494.8l5.5,49.4,41.4-2.3,8.7-6.1,5.6-2.3,6.9-4.1,4.4-2.7,9.7-4.8,5.1-3.2-4.1-10.6-4-8.9-2.7-5.9-2.8-6.2-2.8-6.2-1.9-3.5-9.5,1.5-7,.7-6.9,1.7-9.4,2.8-7.5,2.1-7.3,3-9.7,4.7Z"
                                fill="#f8f8ba" stroke="#929292" stroke-miterlimit="10" stroke-width="0.3" />
                            <path id="Path_7" data-name="Path 7" d="M629.2,505.5l8.1,65,31.2-2.7-8-68.7Z" fill="#f8f8ba"
                                stroke="#929292" stroke-miterlimit="10" stroke-width="0.3" />
                        </g>
                        <g id="籃球場">
                            <path id="Path_8" data-name="Path 8"
                                d="M666.2,517.1c3.1-4,78.2-5.5,78.2-5.5l2.6,41.5-75.8,8.5S663.1,521.1,666.2,517.1Z"
                                fill="#f2c9b4" stroke="#929292" stroke-miterlimit="10" stroke-width="0.3" />
                        </g>
                        <g id="服務中心">
                            <path id="Path_9" data-name="Path 9"
                                d="M990.3,526l3.7-3.6,7-2.1,7.5-2.6,6.1-2,6.9-1.3,5.2-2.8,5.5-2.7,5.6-2.5,6.1-2.5,5.3-.9,7.8-.1,4.6.8,2.1,3.5,1,6.9,1,5.4.4,5.1-2.5,3.8-10.2.8-15-.6-17.1.5-12.9,1-8.8.7-4.1.4Z"
                                fill="#fca5b0" stroke="#929292" stroke-width="0.3" />
                        </g>
                        <g id="停車場">
                            <path id="Path_10" data-name="Path 10"
                                d="M1182.3,528.1l4.8-1.5,2.9-.9,6.5-.3,5.6-.4,4.1.3,5-.3h4.6l3.7-.7,2.9-.4h3.5l3.5-.1,5.6-.4,4.8-.1.3,3.8.4,6,.4,6,1.2,4.7-6.5.8-4.6.7h-3.1l-3.4.1-7,.9-6.5.3-3.4-.4-3.7.4-.9-4.3s-1.7-8-2.5-8.8c-1-.9-5.1-2.3-5.1-2.3l-7.7-1.7Z"
                                fill="#d6d6d6" stroke="#929292" stroke-miterlimit="10" stroke-width="0.3" />
                            <path id="Path_11" data-name="Path 11"
                                d="M753.9,480.5,750,493.1l66.2,20.1,5.1-.5,1.9-5.8-1.7-6-4.4-5.9-4.6-7.2-3.1-6.1Z"
                                fill="#d6d6d6" stroke="#929292" stroke-miterlimit="10" stroke-width="0.3" />
                            <path id="Path_12" data-name="Path 12"
                                d="M307.8,553.2l9.6-3.8,3.4,1.1,8.8-4.5,7.2-3.8,7.1-3.4,3-2.4.7-1.8-.2-1.7-1.3-3.5-.6-1.5,4,.4,3.2-.5,2.6-1,6.7-3,1.6,2.6-8.2,4-2.5,2.4V535l.9,2.8,1.4,2.7,1.5,2.6,1.1,1.6-11.5,5.9L334,556.8l-10.7,5.1-7.1,4.3Z"
                                fill="#d6d6d6" stroke="#929292" stroke-miterlimit="10" stroke-width="0.3" />
                        </g>
                        <g id="滑草場">
                            <path id="Path_13" data-name="Path 13"
                                d="M1323.7,525.5l15.7,4.1,12.8-2.6,12.4,5.9,4.2,2.6,3,6.3,5.6,2.6,6.3,7.1,19.9-7.8,18.7-10.1,15.2-9.1,18.7-7.8,20.2-7.4,12.8-5.3,16.8-8.2,18.4-10.3,14.9-9.5,7.2-3.6,5.6.9,4.2,6.5,1.5,3.5,4.8-2,7.5-6.8,6.5-6.9,17-19,10.9-11.5,5-3.5,6-3.7,6.5-4.7,5-3.7,4-9.5,1.5-5.2-.2-6.7-1.7-6.5-2.2-12.1-1.2-6.7-3-3.7-3.3-6.2s-5.2-6.7-5.2-8.7l-9.6,16.5-11.5,13.6-10.4,10.2-9.7,10.3-17.9,17.6-8.2,11.9L1537,451.7l-22.2,15.4-19.2,16L1477,494l-25.5,11-26.3,7.4-23.5.4-23.9.6-18.5-.4-14.7,3.1-8.2,1.7Z"
                                fill="#ebf8dc" stroke="#929292" stroke-miterlimit="10" stroke-width="0.3" />
                            <path id="Path_14" data-name="Path 14"
                                d="M1434.9,466.7l7.9,8.6,2.7,6.9,1.4,6.1-.6,8.1,14.6-4.2,10.4-4.7,13-6.1,9.6-7.7,12.8-11,10.2-9,9.5-7.7,9-7.3,9.7-12.2,11.8-14,14.2-17.7,13.7-14.7,9.9-10.3,9.4-10.5,7.1-10.9L1607,334l-2.8-5.9-2.3-4.7-3.3-3.8-1.4-3.2-3.1-4.4-2.1-4.1-4.7-6.6-5.3-6-4.5-4.8-3.3-2.9-13,17.7-8.8,8.4-8.5,11.7-9.6,9.4-7.5,4.4-11.7,5.8-9.1,4.4-4.4,3.7-5.9,5.9-6,5.8-4.2,3.6-5.6,4.4-4.8,3.3-5,3.9-4.2,5.3-3.4,4.4-3.1,4.4,3.6,5.2,14.6,8-16.4,21-15.5,24.1"
                                fill="#ebf8dc" stroke="#929292" stroke-miterlimit="10" stroke-width="0.3" />
                        </g>
                        <g id="樹林">
                            <path id="Path_15" data-name="Path 15" d="M75.7,576.4l82.8-13.6,8,16.5-88.6,22Z"
                                fill="#b0e1d5" stroke="#929292" stroke-miterlimit="10" stroke-width="0.3" />
                            <path id="Path_16" data-name="Path 16"
                                d="M196.3,550l5.8,17.5,55.1-22.2L286,531.4l28.2-7.8,30.7-23.5,24.6-8.5-4.7-21.7-11.4-5.4-7.8,2.7-2.8,7.7-5,8.9-24.6,15.9-40.8,20-45.5,18.4Z"
                                fill="#b0e1d5" stroke="#929292" stroke-miterlimit="10" stroke-width="0.3" />
                            <path id="Path_17" data-name="Path 17"
                                d="M409,418.9l9.1,8.9-23.5,19.9,6,9.8-14.4,1.8-12.7,1.5-5.3,2.4-2.4-5.3,4.2-6.8,3.5-5.4,5.1-5.7,7.8-6.7,4.6-4.6,5.8-3.8,5.1-3.5Z"
                                fill="#b0e1d5" stroke="#929292" stroke-miterlimit="10" stroke-width="0.3" />
                            <path id="Path_18" data-name="Path 18"
                                d="M430.2,373.4c4.7-10.6,18.2-24.1,28.1-33.9,2-2,15,7.6,15,7.6l-9.2,14.8-9,9.4-11,8.8C444.2,380.1,429.2,375.8,430.2,373.4Z"
                                fill="#b0e1d5" stroke="#929292" stroke-miterlimit="10" stroke-width="0.3" />
                            <path id="Path_19" data-name="Path 19"
                                d="M439.5,419l31.2-38.9,12.6-16.2,7.7-10.4,6.5-8.9,5-7,4.3-5.4,4.9-2.5,5.2,4.3-1.8,5.2-6.5,9L502,359l-10.5,15.9-10.4,14.7-9.9,15.3-5.8,9.2-5.9,4.3-8.8,5.1-4.9,2.7Z"
                                fill="#b0e1d5" stroke="#929292" stroke-miterlimit="10" stroke-width="0.3" />
                            <path id="Path_20" data-name="Path 20"
                                d="M716.7,577.7l-14.8-.2-31.4-.1-65.8-.2H594c-.1,1.1-.3,2.2-.5,3.3,0,.3-.1.6-.1.9-.2,1.6-.4,3.3-.5,4.9,0,.5-.1,1-.1,1.6l-.3,3.3c-.1,1.1-.2,2.3-.3,3.4a24.325,24.325,0,0,0,0,2.7,13.434,13.434,0,0,1-.3,3.5c0,.1.1.2.1.3h2.5l11.6.6,11.8.4,13.5-.4,13.4.2,12.5-.1H685l9.5.1,8.1.2,7-.1,6.9-1.7v-2.8c0-1.1.2-2.2.2-3.4,0-1.1-.1-2.3,0-3.4s.2-2.3.2-3.4v-2.6Z"
                                fill="#b0e1d5" stroke="#929292" stroke-miterlimit="10" stroke-width="0.3" />
                            <path id="Path_21" data-name="Path 21"
                                d="M619.9,669.5l-1.4-2.9-4.9-4.9-4.2-5.1L605,652l-3-5.9-1.9-4.6s4.8-2.6,4.8-3.7l-6.9-4.4-10.7-7.5-7.2-5.9.4-4,1.2-5.1,1.5-7,2.5-3.8h.4c0-.1.1-.1.1-.2s.1-.2.1-.3h0l.3-.6a.75.75,0,0,0,.1-.5c.1-.4.2-.7.3-1.1v-.3a2.2,2.2,0,0,1,.1-.8c.1-.2.2-.3.3-.5l.3-1.2v-.3a18.587,18.587,0,0,0,.4-3.3,36.088,36.088,0,0,1,.8-6.5c.2-1,.5-2.1.6-3.1.2-1.1.2-2.2.3-3.3l.3-1.2v-.2c0-.1-.1-.1-.1-.2l-40,.1-30.6-.7-5,23.8,7,2.2,5.3,2.4,3.8,2.7,1.5,4.8,3.4,3.9,4.8,5.3,4.4,4.6,8.1,5.4,4.5,3.8,2.3,3.1,2.5,3.2,3.7,1.2,6.7,2,5,2.5,3.3,2.9,5,4,7.2,5.6,2.9,3.2,5.6,2.9,5.1,2.1,5.3,3.1,5.3,2.6,2.7.6Z"
                                fill="#b0e1d5" stroke="#929292" stroke-miterlimit="10" stroke-width="0.3" />
                            <path id="Path_22" data-name="Path 22"
                                d="M551.3,505.3l25.1-2.9,4.3,20,5.1,9.6,5.7,10-.9,8-15,.9-17.1.3-.9-17.9-3.2-14.1Z"
                                fill="#b0e1d5" stroke="#929292" stroke-miterlimit="10" stroke-width="0.3" />
                            <path id="Path_23" data-name="Path 23" d="M704.5,458l-7.4,22.2,47,12.9,6.3-21.8Z"
                                fill="#b0e1d5" stroke="#929292" stroke-miterlimit="10" stroke-width="0.3" />
                            <path id="Path_24" data-name="Path 24"
                                d="M760.5,469c2.2-3.3,7.9-8.8,7.9-8.8l9-7.9,8.4-6.5,3.2-.6,2.9,4.4,4.6,6.5,4,6.9,3.6,7.5,3.2,6.5,2.4,4.1-16.9.8-12.7-1.4-10.2-.1-9.7-.6-5.1-.1C755.1,479.8,759.4,470.6,760.5,469Z"
                                fill="#b0e1d5" stroke="#929292" stroke-miterlimit="10" stroke-width="0.3" />
                            <path id="Path_25" data-name="Path 25"
                                d="M730.9,363.1c-5.7,2,.2,22.7.2,22.7l5.3.5,1.9-7.8.5-6.9,1.1-9.3s.7-.3-3.3.5C736.6,362.8,735,361.7,730.9,363.1Z"
                                fill="#b0e1d5" stroke="#929292" stroke-miterlimit="10" stroke-width="0.3" />
                            <path id="Path_26" data-name="Path 26"
                                d="M549.5,357.3c-2-1.4-9.8,11.5-9.8,11.5l15.7,6,11.3-8.5,2.1.3,5.4-4,2.8,2,1.7,3,2.4,3.6,1.5,2.6.3,4.2,1.5,3.1,1.9,2.5,1.7,1.9.8,1.6,8.3-6.8,5.8-4.3,4.7-3.3,4.7-3.1,3.8-3-8.2-11.4-8.8-12.8-9.7,6.5-9.6,8.4-5.2,2.5-8.6.1a30.552,30.552,0,0,0-8.4-.3C557.6,359.9,554.3,360.6,549.5,357.3Z"
                                fill="#b0e1d5" stroke="#929292" stroke-miterlimit="10" stroke-width="0.3" />
                            <path id="Path_27" data-name="Path 27" d="M500.7,439.8l-4.4,10.3,17.4,5.2,5.9-9.7Z"
                                fill="#b0e1d5" stroke="#929292" stroke-miterlimit="10" stroke-width="0.3" />
                            <path id="Path_28" data-name="Path 28" d="M381.3,541.6l6.3,19.6,39.6-1.1,1-16.6Z"
                                fill="#b0e1d5" stroke="#929292" stroke-miterlimit="10" stroke-width="0.3" />
                            <path id="Path_29" data-name="Path 29" d="M396.9,488.8" fill="#b0e1d5" stroke="#929292"
                                stroke-miterlimit="10" stroke-width="0.3" />
                            <path id="Path_30" data-name="Path 30" d="M510.7,692.7" fill="#b0e1d5" stroke="#929292"
                                stroke-miterlimit="10" stroke-width="0.3" />
                            <path id="Path_31" data-name="Path 31" d="M1140.3,575.3l12.4,10.4-14.2,19.2-10.3-4.7Z"
                                fill="#b0e1d5" stroke="#929292" stroke-miterlimit="10" stroke-width="0.3" />
                            <path id="Path_32" data-name="Path 32"
                                d="M1424.1,378.1l27.7.2,1.1,6.1L1438.4,399l-14.1-11.2,3.7-4.9Z" fill="#b0e1d5"
                                stroke="#929292" stroke-miterlimit="10" stroke-width="0.3" />
                            <path id="Path_33" data-name="Path 33" d="M1388.6,414.1l6.3-7.9,6.7,6.3,4.7,4.4-4.5,7Z"
                                fill="#b0e1d5" stroke="#929292" stroke-miterlimit="10" stroke-width="0.3" />
                            <path id="Path_34" data-name="Path 34" d="M1159.5,434.9l13.4-3,7,16.9-13.5,5Z"
                                fill="#b0e1d5" stroke="#929292" stroke-miterlimit="10" stroke-width="0.3" />
                            <path id="Path_35" data-name="Path 35"
                                d="M905.1,545.4l-1.7,4.2,14.8,8.8,13.7,4.6,1.4-6.4-.1-4.6-.4-2.9L921,547.4Z"
                                fill="#b0e1d5" stroke="#929292" stroke-miterlimit="10" stroke-width="0.3" />
                            <path id="Path_36" data-name="Path 36" d="M1389,414.4" fill="#b0e1d5" stroke="#929292"
                                stroke-miterlimit="10" stroke-width="0.3" />
                            <path id="Path_37" data-name="Path 37"
                                d="M1407.7,482.8l1.8-7.5,7,3.8,5.8,3.5,5.8,2,7,.7,3-1.6,1.3-4.4-.5-4.5-3-3.8-.8-2.9,7.5,9,1.5,3.1,1.1,5.2.7,4.2v5.2l-.5,4.4-5.8,4.1-7.1,1.5-6,1.3-7.5.5Z"
                                fill="#b0e1d5" stroke="#929292" stroke-miterlimit="10" stroke-width="0.3" />
                            <path id="Path_38" data-name="Path 38"
                                d="M513.3,692.9c-2.7.1-4.9,16.8-4.9,16.8l8.6.1s1.8-12.3,3.8-14.8A13.169,13.169,0,0,0,513.3,692.9Z"
                                fill="#b0e1d5" stroke="#929292" stroke-miterlimit="10" stroke-width="0.3" />
                        </g>
                        <g id="Layer_16">
                            <path id="Path_39" data-name="Path 39"
                                d="M600,244.3l-1.8,33.3,2.9,5.4,6.7,9,5.4,9.3,3.3,4.3,6.6-4.1,9.2-3.9,8.6-2.5,7-.4,14.2-3.7,12.2-.4,13.3-3.7,14-2.7,10.9-.6,10.1-3.1,7.8-.2,10.1-2.5,9-.8,8.1-1.4,4.7-.2.8-6,1.5-10.1,1.4-7.2,1-7,1.3-6.4.2-4.5Z"
                                fill="#e6ffe9" stroke="#929292" stroke-miterlimit="10" stroke-width="0.3" />
                            <path id="Path_40" data-name="Path 40" d="M139.4,596.1l19,.8,11.7,66.3-21.3,11.2Z"
                                fill="#e6ffe9" stroke="#929292" stroke-miterlimit="10" stroke-width="0.3" />
                            <path id="Path_41" data-name="Path 41" d="M173.3,631.7l93.9-44,12.3,21.7L178.1,661.1Z"
                                fill="#e6ffe9" stroke="#929292" stroke-miterlimit="10" stroke-width="0.3" />
                            <path id="Path_42" data-name="Path 42"
                                d="M379.9,565.9c-1.2,4.3,9.2,15.4,9.2,15.4l25.1-.6,28-2.3,13.2,1.2,11.9,2.1,9.5,3.5,10.9,3.5,13.2,5.1,6.4,3.1,6.4-35.3-30.4-.8H450.2L389,561C389.3,561.1,380.6,563.4,379.9,565.9Z"
                                fill="#e6ffe9" stroke="#929292" stroke-miterlimit="10" stroke-width="0.3" />
                        </g>
                        <g id="公園">
                            <path id="Path_43" data-name="Path 43"
                                d="M1131,493.1l.3,8.5,7.7-.5,9.4-3.5,8-2.4,9.3-2,8.3-.9,9.5-1.6,8.5-1.5,4.2-.7,6.2.2,7.4,1.1,6.9.7,5.6,1.3,7.5,2,7.4,1.3,1,10.1.1,7.8.8,8.9-21.7,2.2-19,.6-14.7,1.6-9.2-4.2-7.9-5.4-6.9-3.4-9.5-2.6-9.4-.8-4.9,1-2.7,3.5-.9,4.4-.4,3.3-.5,3-.6,2.9-2.1,1.6-6.6-1.3-6.6-.1-31,.9-5.3-2.3-3.4-2.8-1.7-4.3-1-4.1.5-3.6,4.1-3.9,5.8-.9,6.1-1.1,12.8-1.9,6.3-2.3,13.4-4.6Z"
                                fill="#c7fec7" stroke="#929292" stroke-miterlimit="10" stroke-width="0.3" />
                            <path id="Path_44" data-name="Path 44"
                                d="M1063.6,471l24.3-4.6,5.2,14.4-9.6,4.4-6.2,3-10.7,4.9Z" fill="#c7fec7"
                                stroke="#929292" stroke-miterlimit="10" stroke-width="0.3" />
                            <path id="Path_45" data-name="Path 45"
                                d="M845,520.4l20.4-8.1,13.3-3.6,7.2-3,4.6-1.3,7.2-.6,4.7.3,5.3.2,4.9-.2,3.4.7-.9,8.7-1.3,8.1-.6,8.6-.8,6.5-9.2,1.1-21.9-5.7-18.3-5Z"
                                fill="#c7fec7" stroke="#929292" stroke-miterlimit="10" stroke-width="0.3" />
                            <path id="Path_46" data-name="Path 46"
                                d="M953.5,555.6v-.5c0-.4,0-3.1.1-3.4a18.021,18.021,0,0,1,.8-2.1,17.382,17.382,0,0,1,1-1.9,16.6,16.6,0,0,1,1.6-2.1,23.022,23.022,0,0,1,4.9-2.6,22.594,22.594,0,0,1,3.7-1.1,5.85,5.85,0,0,1,1.3.2,10.567,10.567,0,0,1,1.9.6,11.4,11.4,0,0,1,1.9,1,10.47,10.47,0,0,1,1.1.8c.3.2,1,.6,1.3.8a12.476,12.476,0,0,1,1.6,1.7,8.338,8.338,0,0,1,.8,1.2,9.74,9.74,0,0,1,.5,1.1,10.408,10.408,0,0,1,.6,1.6c.1.4.4,1.3.5,1.8a13.405,13.405,0,0,1,.1,2,4.87,4.87,0,0,1-.1,1.2,14.136,14.136,0,0,1-.6,2.2c-.2.4-.5,1.2-.7,1.5a26.819,26.819,0,0,1-2.5,2.8,12.164,12.164,0,0,1-1.7,1.5l-1.6.8c-.5.2-1.3.6-1.9.8-.5.1-2.2.4-2.5.5a8.526,8.526,0,0,1-2.5-.3,19.389,19.389,0,0,1-4.9-2c-.5-.4-2.1-2.5-2.3-2.7a13.032,13.032,0,0,1-1-1.5c-.1-.4-.9-1.5-.9-2Z"
                                fill="#c7fec7" stroke="#929292" stroke-miterlimit="10" stroke-width="0.3" />
                            <path id="Path_47" data-name="Path 47"
                                d="M1209.9,453.7l18.2-.6h11.6l7.4-2.6,6.7-2.1,6.1-2,3.6-1.1-.2,10.6v7.7l.7,6.5-.3,5.4-5.9,4.1-7,4.4s-6.6,2.5-8.7,3.2a29.687,29.687,0,0,1-9,.2c-1.6-.3-4.8-.3-6.6-1.5a34.381,34.381,0,0,1-5.2-5c-1.2-1.7-3.1-6.9-3.1-6.9l-3.4-9Z"
                                fill="#c7fec7" stroke="#929292" stroke-miterlimit="10" stroke-width="0.3" />
                            <path id="Path_48" data-name="Path 48"
                                d="M1188.9,600.6l-1.9,23.6,8.6,2.5,4.5.9,4.8,1.3,4.8,1.1,5.7,2.1,6.1,1.2,5,1.3,4.4-6.8,2.9-7.8,2.6-7-23.6-6.2Z"
                                fill="#c7fec7" stroke="#929292" stroke-miterlimit="10" stroke-width="0.3" />
                            <path id="Path_49" data-name="Path 49"
                                d="M1343.9,562.2l4.6,1.4,3.4,5.8,6.3,4.6,12,4.1-4,5.3.2,5,1.2,6,3.2,5.1,4.8-.2,6.4-3.4,5.1-2.9,5.8-3.2,6.4-3,6.4-2.4,4.6-1,5,1.9-8.5,7.8-12.1,10.2-12.3,8.1-5.6,3.9-10.3,3.6-6,.7-7.8-.4-6.4-1.3-6.4-1.2-3.3-1.6,2.8-21.2,1.6-12.7Z"
                                fill="#c7fec7" stroke="#929292" stroke-miterlimit="10" stroke-width="0.3" />
                            <path id="Path_50" data-name="Path 50"
                                d="M1333.1,620.5a27.252,27.252,0,0,1,1.5,3,15.619,15.619,0,0,1,.9,3.4,45.984,45.984,0,0,1,.1,5.2,23.72,23.72,0,0,1-.9,4.9,23.244,23.244,0,0,1-1.9,3.1c-.5.6-1.4,1.6-1.4,1.6l9.9-1.5s7.9-1.8,10.6-2.1c2.4-.3,9.3-.3,9.3-.3l9.9-1.4,11.1-3.4,8.3-3.3,9.8-5.9,7.9-7.3,6.4-7.5,5.9-7.1,3.8-4.5-6.3,1.8-5.1,3.4-3.8,3.4-4.5,3.5s-4.6,4.8-6.5,6a67.2,67.2,0,0,1-7.5,3.3l-7,3.6s-7.8,2.8-10.5,3.5c-2.9.7-11.6,2-11.6,2s-5.9,0-7.8-.3c-3.4-.6-13-4-13-4Z"
                                fill="#c7fec7" stroke="#929292" stroke-miterlimit="10" stroke-width="0.3" />
                            <path id="Path_51" data-name="Path 51"
                                d="M938.3,597.3l-14.2-8.2-12.7-7.2L900,575.6l-14.4-8.8-2.2-1.9a.9.9,0,0,1-.5-.1,41.165,41.165,0,0,0-4-3.3c-.7-.5-1.4-1.1-2-1.6-.7-.6-1.5-1.1-2.2-1.7-2.5-2-5.2-3.6-7.6-5.7a14.793,14.793,0,0,0-2.1-1.3,4.7,4.7,0,0,1-.9-.6l-.7-.7a11.32,11.32,0,0,0-1.3-1,.44.44,0,0,1-.5.1c-1.8-.9-3.2-2.4-4.8-3.5-.8-.6-1.6-1.1-2.3-1.7-.8-.7-1.5-1.4-2.2-2.1-.8-.7-1.7-1.3-2.5-2a25.237,25.237,0,0,0-2.5-2.1,13.015,13.015,0,0,1-2.3-1.8l-.5-.1c-.2-.2-.5-.3-.7-.5-8.8-6.5-20.9-11.9-32.2-11.8a2.186,2.186,0,0,0-1.6-.1c-.7.1-1.3.3-2,.4a2.725,2.725,0,0,0-1.2.6.764.764,0,0,1-.2.5c-.1.3-.3.6-.4.9l-.3.6v.7l-.1.1a1.269,1.269,0,0,1-.1-.6v.7c-.2.2-.4.3-.5.5a20.283,20.283,0,0,1-1.3,1.8,4.347,4.347,0,0,1-.7.6c-.7,1-1.3,2.1-1.9,3.1-7.3,12.4-20.2,18.4-33.1,23.8-14.3,6-29.6,9.9-44.4,14.3a6.321,6.321,0,0,0-4.8,5.2l-.2.2v.7c-.1,1.4-.3,2.7-.4,4.1-.3,5.1-.5,10.2-.5,15.3,0,2.3-.1,4.6,0,6.9,17.5-1.1,35-1.2,52.6-.9,16.6.2,33.1-1.1,49.6-.9,8.1.1,16.2-.6,24.4-.8,7.9-.2,15.7.4,23.6.5,16.3.2,32.7-.9,49-2.2A212.217,212.217,0,0,1,941,599Z"
                                fill="#c7fec7" stroke="#929292" stroke-miterlimit="10" stroke-width="0.3" />
                            <path id="Path_52" data-name="Path 52"
                                d="M371.4,503l40.9-13.8,2,12,8.6,1.8,9.1-1.8,8.4-1.1,6.7-.5,6.6.7,5.1,2.7,8.6,4.2,2.7-1.4,2.4-2.6.1-2.1.3-3.3-.1-2.5.7-1.5,1.5.7v2.9l-.9,2.9-3.2,8.5-1.6,5.1-.5,2.2.2,1,.7.8,1.2.8,1.9,1,2.7,1.4,2.8,1,2,.7,2.3.7,2.1.3.8-.3.6-.3-.2,2.9-1.8,10.8-12.6.7-25.5-.4-14.2-.1.6-3.6-.3-2.4-.3-2.3-.7-2.7-1.1-2.9-1.3-1.9-2.4-.3-15.6.6-23.5-.8-8.9.5-4.3.4-2.6.9-2.7,1.1-3,1.4-1.7.9-1.4-2.5,3.2-2.3,3.6-2.1,2.7-1.5,2.4-1.4,1.7-1.4.5-1.5.2-1.1-.7-1.3-.9-1.7-.8-2.1-.8-1.5-1.1-1.6Z"
                                fill="#c7fec7" stroke="#929292" stroke-miterlimit="10" stroke-width="0.3" />
                            <path id="Path_53" data-name="Path 53"
                                d="M1307.4,477.7l16.8,39.6,18-6.8,12.7-1.2,12.5-.7,10.3.5-.9-6.6,2.1-7.5,2.5-7.7,3.4-6.8,3.6-4.1,4.1-.2-.3-2.5s-58,2.9-61.8,1.8S1307.4,477.7,1307.4,477.7Z"
                                fill="#c7fec7" stroke="#929292" stroke-miterlimit="10" stroke-width="0.3" />
                        </g>
                        <g id="Layer_18">
                            <path id="Path_54" data-name="Path 54" d="M1204.8,496" fill="#dbfffe" stroke="#929292"
                                stroke-miterlimit="10" stroke-width="0.3" />
                            <path id="Path_55" data-name="Path 55" d="M1206.5,495.6l.4,28,27.1-.9-1.2-26.7Z"
                                fill="#dbfffe" stroke="#929292" stroke-miterlimit="10" stroke-width="0.3" />
                        </g>
                        <g id="住宅">
                            <g id="Group_1" data-name="Group 1">
                                <path id="Path_56" data-name="Path 56"
                                    d="M263.8,574.8c-.5-1.2-1.1-2.4-1.6-3.5a106.436,106.436,0,0,0-5.1-10.8c-.9-1.8-2.2-3.7-4.2-4a6.86,6.86,0,0,0-3.1.6,168.246,168.246,0,0,0-19.1,8.1c-.5.2-.9.5-1.4.7-3.7,1.8-7.8,2.7-11.5,4.6-4.4,2.2-9.2,3.8-13.8,5.7-9.2,3.8-18.5,7.6-27.7,11.4-3,1.2-6.1,2.6-7.8,5.3-1.9,3-1.5,6.9-1.1,10.5.6,4.8,1.2,9.6,1.8,14.3.2,1.7.7,3.7,2.3,4.4a4.84,4.84,0,0,0,3.5-.5c26.4-10.7,52.6-22.2,78.3-34.4,1.4-.7,12.6-4.9,12.4-6.1A16.368,16.368,0,0,0,263.8,574.8Z"
                                    fill="#ffe8e8" stroke="#929292" stroke-width="0.3" />
                            </g>
                            <g id="Group_2" data-name="Group 2">
                                <path id="Path_57" data-name="Path 57"
                                    d="M376.3,511a5.023,5.023,0,0,0-.5-1.3c-1.3-2.8-2.7-6.2-5.6-7.6-3.8-1.7-7.6.3-11.2,1.7a71.9,71.9,0,0,0-11.4,5.8c-10.7,6.8-19.6,16.3-30.9,22.1-10.8,5.5-23.1,6.1-34.1,10.9-5.9,2.6-11.6,5.6-17.2,8.7a23.528,23.528,0,0,1-4,1.4.215.215,0,0,0-.2.2.1.1,0,0,0-.1.1c-1.9,1.7,3.3,9.2,4.1,11,1,2.1,1.6,3.7,4.2,3.4a16.021,16.021,0,0,0,6.9-2.8c.4-.3.9-.6,1-1.1.5-1.3-.7-2.1,0-3.4,1.2-2,5.7-2.5,7.7-3.3,2.1-.9,8.1-4.5,10.2-2.8.6.5.9,1.6,1.7,1.7a1.929,1.929,0,0,0,1-.3c3-1.4,6.2-2.6,9.3-3.9,3.2-1.4,6.7-3.6,10-4.5a2.879,2.879,0,0,0,2,2,7.183,7.183,0,0,0,3.8-.5,28.463,28.463,0,0,0,6-3.1,55.026,55.026,0,0,1,12.3-5.7c2.5-.9,5.4-2.2,5.9-5.2.3-1.8-1.1-3.3-1-4.7.2-2.2,4.5-2.5,6.1-2.8a31.917,31.917,0,0,0,9.4-3.3c4.6-2.4,8.7-5.6,13.4-7.8C376.9,515,376.9,512.8,376.3,511Z"
                                    fill="#ffe8e8" stroke="#929292" stroke-width="0.3" />
                            </g>
                            <g id="Group_3" data-name="Group 3">
                                <path id="Path_58" data-name="Path 58"
                                    d="M606.4,299.1a18.574,18.574,0,0,0-2.2-4.2,35.378,35.378,0,0,0-4.2-5.2c-3.4-7.3-16.4-6.8-22.8-5.8a31.153,31.153,0,0,0-12.5,5.2,14.954,14.954,0,0,0-4.1,2.3c-7.1,3.2-12.5,11.4-16.4,17.4-3.1,4.7-6.4,9.3-9.6,14-4.7,6.8-8.8,14.1-13.4,21C512.5,357,502,369,493.3,382.2a215.266,215.266,0,0,0-21.8,41.4c-3.2,8.4-5.6,17.1-8.4,25.6-3,9.2-6.6,18-10.2,26.9a3.9,3.9,0,0,0,1.8,4.4c5.8,2.8,13.2,8.5,19.9,5.2,3-1.5,4.4-4.5,5.5-7.5,1.6-4.2,3.2-8.4,4.9-12.6,8.1-20.8,14.6-42.3,26.3-61.6,5.2-8.6,11.4-16.5,17.3-24.6s10.7-17.3,17.4-24.8c6.2-6.8,13.6-12.5,21.1-17.9,7-5,14-10.2,21.4-14.5,6.7-3.8,18.3-9.2,18.8-18.2A8.591,8.591,0,0,0,606.4,299.1Z"
                                    fill="#ffe8e8" stroke="#929292" stroke-width="0.3" />
                            </g>
                            <g id="Group_4" data-name="Group 4">
                                <path id="Path_59" data-name="Path 59"
                                    d="M693.2,354.9c-.6-6.4-4.8-14.1-6-18.4-4.2-14.1-7.5-28.4-12.9-42.1a3.6,3.6,0,0,0-4.7-2.7,101.351,101.351,0,0,0-10.8,1.8c-2,.4-8.4,1-9.7,2.5-1.5,1.8-.3,5,.2,7a156.054,156.054,0,0,0,6.5,18.9c1.4,3.7,2.9,7.4,4.2,11.2,3,8.7,4.7,18,6.9,26.9,2.4,9.4,11,7.1,18.5,5C690.5,363.7,693.7,360.7,693.2,354.9Z"
                                    fill="#ffe8e8" stroke="#929292" stroke-width="0.3" />
                            </g>
                            <g id="Group_5" data-name="Group 5">
                                <path id="Path_60" data-name="Path 60"
                                    d="M699.6,380.1a82.663,82.663,0,0,0-3.8-10.9,3.928,3.928,0,0,0-1.5-2.1,4.153,4.153,0,0,0-2.5-.3c-13,1.1-27.7,2.8-40,7.7-8.1,3.2-1.2,13.8,2.2,19,1.6,2.4,3.8,4.9,6.7,5.4a12.51,12.51,0,0,0,4.3-.3c9.5-1.8,18.9-4,28.1-6.7,2.5-.7,5.2-1.7,6.5-3.9,1.2-2.2.7-4.8.1-7.2A1.482,1.482,0,0,0,699.6,380.1Z"
                                    fill="#ffe8e8" stroke="#929292" stroke-width="0.3" />
                            </g>
                            <g id="Group_6" data-name="Group 6">
                                <path id="Path_61" data-name="Path 61" d="M702.6,365.8Z" fill="#ffe8e8" stroke="#929292"
                                    stroke-width="0.3" />
                            </g>
                            <path id="Path_62" data-name="Path 62"
                                d="M721.5,300.5c-.1-.2-.1-.4-.2-.6-2-5.8-3.9-15.6-11.9-14.3-9.4,1.5-18.7,3-28.1,4.5a3.877,3.877,0,0,0-2.3.9c-2.6,3,1.5,11.3,2.6,14.3,2.4,6.6,4.4,13.4,6.4,20.1a4.93,4.93,0,0,0,1.1,2.3c3.5,3.9,11,.7,14.9-.8,4.8-1.9,10.9-3.7,15.3-6.5C726.2,316.1,723.6,306.8,721.5,300.5Z"
                                fill="#ffe8e8" stroke="#929292" stroke-width="0.3" />
                            <path id="Path_63" data-name="Path 63"
                                d="M724.7,325.8c-2.4-1.4-6.6-.7-11.2.6-7.4,2.1-14.8,4.3-22.1,6.7-3.4,1.1-.2,10.2.5,12.5,2.3,7.8,5.3,15.9,14.8,13.2,3.9-1.1,9.5-1.2,12.6-4.2,4.4-4.2,5.6-14.1,6.9-19.8C727.5,329.6,726.7,327,724.7,325.8Z"
                                fill="#ffe8e8" stroke="#929292" stroke-width="0.3" />
                            <g id="Group_7" data-name="Group 7">
                                <path id="Path_64" data-name="Path 64"
                                    d="M781.9,439.5c-2.5-6.5-9.6-13.1-14.1-18.2a222.277,222.277,0,0,0-17.5-17.5c-3.4-3-6.9-5.9-11-7.6-5.7-2.3-12-2.2-18.1-1.8a228.6,228.6,0,0,0-31.8,5c-5.3,1.2-10.5,2.4-15.7,3.7-3.2.8-12.9.8-13.4,5.4-.4,4.3,5.2,19.2,9.7,20.7,3.7,1.2,12.2-2.6,15.9-3.6,6.2-1.6,12.5-3.2,18.7-4.9a135.607,135.607,0,0,1,16.8-3.6c3.2-.4,6.6-.5,9.5,1a17.512,17.512,0,0,1,4.8,4.2c5.4,6.1,10.9,12.1,16.3,18.2,2.4,2.7,9.4,13.5,13.5,13.5,4.8,0,18.6-8.8,16.6-14.4C782,439.7,782,439.6,781.9,439.5Z"
                                    fill="#ffe8e8" stroke="#929292" stroke-width="0.3" />
                            </g>
                            <g id="Group_8" data-name="Group 8">
                                <path id="Path_65" data-name="Path 65"
                                    d="M662.8,429.2c1.7-4.2-.1-9.3-2.2-13.6-5.2-11-14.5-6.2-21.5.1-4.4,4-9.2,6.8-13.1,11.4a66.813,66.813,0,0,0-9.5,15,65.285,65.285,0,0,0-5.4,35.4c.4,2.8,1.1,5.8,3.2,7.8,4.6,4.4,13.9,2.2,19.4,1.1a7.19,7.19,0,0,0,3-1.1c3.1-2.5.2-12.9.1-16.4-.2-6.3.2-12.7,3-18.5,2.4-5,6.5-9.1,11-12.3,2.8-2,6.2-2.7,9-4.8A9.437,9.437,0,0,0,662.8,429.2Z"
                                    fill="#ffe8e8" stroke="#929292" stroke-width="0.3" />
                            </g>
                            <g id="Group_9" data-name="Group 9">
                                <path id="Path_66" data-name="Path 66"
                                    d="M703.1,457.9c-3.5-6.5-29.7-5.5-34.9-5.1-6.9.6-25.6,1.6-26.9,10.5-.2,1.7.4,4,.6,5.7.3,2.7-.1,14.1,3,15.3a4.494,4.494,0,0,0,2,0c16.2-2.3,32-6.1,48.5-5.2a4.329,4.329,0,0,0,1.6-.1c1.8-.7,2.9-5.8,3.6-7.6a42.925,42.925,0,0,0,2.9-11.6A4.056,4.056,0,0,0,703.1,457.9Z"
                                    fill="#ffe8e8" stroke="#929292" stroke-width="0.3" />
                            </g>
                            <g id="Group_10" data-name="Group 10">
                                <path id="Path_67" data-name="Path 67"
                                    d="M759.3,457.7c-.5-2.3-2.1-4.5-3.6-6.4a311.605,311.605,0,0,0-23-24.4,15.545,15.545,0,0,0-5.1-3.7c-3-1.1-6.4-.5-9.5.2-9.9,2.2-19.9,4.4-29.8,6.7-8.3,1.9-16.7,3.7-24.6,7.1a52.526,52.526,0,0,0-14.9,9.3c-5.1,4.7-4.2,7.1,2.4,6.5,7.6-.8,15.1-2.2,22.7-3.4,5.2-.8,10.5-1.7,15.7-1.2a57.989,57.989,0,0,1,12.9,3.2c8.2,2.6,16.3,5.3,24.5,7.9,7.6,2.5,15.3,4.9,23.2,5.3,3.3.1,7.1-.5,8.7-3.4A5.879,5.879,0,0,0,759.3,457.7Z"
                                    fill="#ffe8e8" stroke="#929292" stroke-width="0.3" />
                            </g>
                            <g id="Group_11" data-name="Group 11">
                                <path id="Path_68" data-name="Path 68"
                                    d="M460.8,429.1a3.386,3.386,0,0,0-3.2-1.3.349.349,0,0,1-.2-.1c-3.5-.8-6.9,1.5-9.2,3.9-3.3,3.3-5.7,7.5-8.7,11-1.5,1.8-3.1,3.4-4.7,5-2.3,2.5-4.4,4.9-7.3,6.6a55.517,55.517,0,0,1-9.9,4.5c-12.8,4.6-26,3-39.2,4.8-3.2.5-10.4,2.3-12.3,5.3a3.255,3.255,0,0,0-.4,1.4c-1.1,6.7,3.6,12.4,4.7,18.8.2,1,.5,2.1,1.4,2.4a2.3,2.3,0,0,0,1.4-.2c2.4-.8,4.8-1.7,7.2-2.4,1.8-.5,4.6-1.8,6.4-1.8,4.4-1.6,8.9-3,13.4-4.4,4.3-1.3,8.6-2.7,12.9-4.3,4.1-1.5,8.1-3.1,12.3-4.2a35.409,35.409,0,0,1,9.1-1.1c3.8.1,6.7.3,10,2,4.1,2.1,7.1-9.5,8.1-12,3.7-9.2,8.8-19.6,9.1-29.7A7.616,7.616,0,0,0,460.8,429.1Z"
                                    fill="#ffe8e8" stroke="#929292" stroke-width="0.3" />
                            </g>
                            <g id="Group_12" data-name="Group 12">
                                <path id="Path_69" data-name="Path 69"
                                    d="M472.7,496.8a12.605,12.605,0,0,1-.4-2.8v-.4l-.3-.3c-5.9-3.5-12.5-5.7-18.9-8.1-2.8-1.1-5.6-2.2-8.4-3.2a37.119,37.119,0,0,0-6.6-1.5c-2.3-.3-4.3.5-6.5,1.1-5,1.4-10.7,2.4-15.5,4.5-.8.3-2,.1-2.7.7a1.814,1.814,0,0,0-.3,1.3c.1,2.6.4,5.2.4,7.8,0,1.5-.6,4.5.7,5.6,1.5,1.3,4.4.2,6.1.3h0a41.6,41.6,0,0,0,10.6-1.3,68.639,68.639,0,0,1,11.1-1.3,48.2,48.2,0,0,1,9.3.2c4.2.7,7.6,3.2,11.2,5.3,1.4.8,2.9,1.7,4.5,1.6a5.792,5.792,0,0,0,4.5-2.9A9.324,9.324,0,0,0,472.7,496.8Z"
                                    fill="#ffe8e8" stroke="#929292" stroke-width="0.3" />
                            </g>
                            <g id="Group_13" data-name="Group 13">
                                <path id="Path_70" data-name="Path 70"
                                    d="M491.1,500a2.73,2.73,0,0,0-1.2-.9,48.683,48.683,0,0,0-7.1-3c-1.1-.4-5.6-2.2-6.6-1.4a2.384,2.384,0,0,0-.6,1.1c-2.2,6.4-4.4,12.9-6.6,19.3a2.263,2.263,0,0,0-.1,1.8,2.581,2.581,0,0,0,.9.9,36.258,36.258,0,0,0,13.4,5.7,3.341,3.341,0,0,0,2.8-.3,3.2,3.2,0,0,0,1-1.9c1.1-3.5,2-7.1,2.8-10.7.4-1.7.7-3.3,1.1-5C491.1,503.9,492.2,501.4,491.1,500Z"
                                    fill="#ffe8e8" stroke="#929292" stroke-width="0.3" />
                            </g>
                            <g id="Group_14" data-name="Group 14">
                                <path id="Path_71" data-name="Path 71"
                                    d="M519.1,508.3a2.01,2.01,0,0,0-.8-.4c-3.7-1.6-7.5-2.7-11.3-4-3.5-1.2-7.2-2.5-11-2.2a2.748,2.748,0,0,0-1.9,1,3.83,3.83,0,0,0-.5,1.9c-.5,5.7-1.8,11.3-2.3,17a1.729,1.729,0,0,0,.1,1,1.536,1.536,0,0,0,1.6.5c7.8-1.3,16.1-4.3,22.5-9a12.742,12.742,0,0,0,3.9-4.1,1.163,1.163,0,0,0,.2-1C519.6,508.7,519.4,508.5,519.1,508.3Z"
                                    fill="#ffe8e8" stroke="#929292" stroke-width="0.3" />
                            </g>
                            <g id="Group_15" data-name="Group 15">
                                <path id="Path_72" data-name="Path 72"
                                    d="M517.3,517.5c-2-1.6-5,1.2-6.6,2.2-2.3,1.5-4.4,3.2-6.6,4.7a37.119,37.119,0,0,1-5.4,3.3c-1.4.6-3.1.6-4.5,1.2a45.932,45.932,0,0,0-4.9,2.6c-.3.2-.7.4-.8.8-.7,3.2,7.5,3.1,9,3.7a5.678,5.678,0,0,1,3.1,3.8c.7,3.6-.7,8.1-1.2,11.7-.3,2.1-1.7,7.5.2,9.1,2.3,1.9,7.2,1.2,9.8.6a8.543,8.543,0,0,0,4.6-2.4,8.051,8.051,0,0,0,1.5-4.8c.6-9.1,3.8-17.9,4-27C519.5,524.5,519.5,519.4,517.3,517.5Z"
                                    fill="#ffe8e8" stroke="#929292" stroke-width="0.3" />
                            </g>
                            <g id="Group_16" data-name="Group 16">
                                <path id="Path_73" data-name="Path 73"
                                    d="M483.1,543.4c-1.1-2-4.6-1.6-7.3-1.5-5.6.2-11.1.3-16.6.3-4.1-.2-8.2,0-12.4.2-4.6.2-9.3.7-13.9.5-.7,0-1.4-.1-2.1-.1a10.821,10.821,0,0,0-1.8,0c-.1,0-.2.1-.3.2v.2c-.2,2.4-.4,4.7-.4,7.1-.1,1.6-.2,3.2-.4,4.8-.1.8-.1,1.6-.2,2.4a14.718,14.718,0,0,0,0,2.1c.2,1,1,.8,1.9.8h5.8c2.9-.1,5.8-.1,8.8-.1,5.6.1,11.2-.2,16.8-.5,5.5-.2,11,.1,16.4-.2a1.269,1.269,0,0,0,.6-.1c.6-.3.8-1.9,1-2.5.4-1.2,1-2.3,1.5-3.5a30.127,30.127,0,0,0,2.8-7A4.364,4.364,0,0,0,483.1,543.4Z"
                                    fill="#ffe8e8" stroke="#929292" stroke-width="0.3" />
                            </g>
                            <g id="Group_19" data-name="Group 19">
                                <g id="Group_17" data-name="Group 17">
                                    <path id="Path_74" data-name="Path 74" d="M358.1,544.2h0Z" fill="#ffe8e8"
                                        stroke="#929292" stroke-width="0.3" />
                                </g>
                                <g id="Group_18" data-name="Group 18">
                                    <path id="Path_75" data-name="Path 75"
                                        d="M432.1,531.3a26.437,26.437,0,0,0-1.4-6.9,3.554,3.554,0,0,0-.4-.9,3.59,3.59,0,0,0-1.7-2.1h-.1c-.2-.1-.5-.2-.7-.3a5.7,5.7,0,0,0-1.3-.1c-.6,0-1.2.1-1.8.1-1.7.1-3.4,0-5.1.1a41.67,41.67,0,0,0-7.1.7c-5.9-.2-11.7-.4-17.6-.6-4.8-.1-9.6-.3-14.4,0a30.84,30.84,0,0,0-6.8.8,49.969,49.969,0,0,0-8.7,3.6c-2.8,1.4-5.8,2.5-8.5,4.1-1.3.8-3.3,1.6-3.6,3.3-.5,2.2.8,5,1.8,6.9.9,1.7,2,3.8,4,4.6,2.1.8,4.5-.2,6.4-1.1,2.1-.9,4.1-2.1,6.1-3.2,1-.5,2-1.1,3-1.5a21.963,21.963,0,0,1,4.3-.9q3.6-.45,7.2-.6c2.4-.1,4.8-.2,7.2-.2s4.9.1,7.3.1h1.4c3.6.2,7.2.6,10.7.8a108.585,108.585,0,0,0,11.4.4c1.5-.1,3-.2,4.6-.3a5.025,5.025,0,0,0,2.4-.6C432.7,536.1,432.2,533.1,432.1,531.3Z"
                                        fill="#ffe8e8" stroke="#929292" stroke-width="0.3" />
                                </g>
                            </g>
                            <g id="Group_20" data-name="Group 20">
                                <path id="Path_76" data-name="Path 76"
                                    d="M141.6,618.1c0-4.6-1.6-9.4-2.1-14-.3-3.1,0-6.7-1.1-9.5v-.1a.764.764,0,0,0-.2-.5c-1.4-1-3.8.2-5.2.5-2.2.5-4.4,1-6.7,1.5-4.6.9-9.3,1.6-13.9,2.2-2.3.3-7.1,1.2-6.3,4.6a4.329,4.329,0,0,0,.1.5c1.5,6.7,1.6,13.6,2.8,20.3.7,4.1,3,6.4,7.2,6.2,4-.1,7.9-1.5,11.6-2.8,3.4-1.2,6.9-2.2,10.2-3.6a8.215,8.215,0,0,0,2.5-1.6,5.844,5.844,0,0,0,1.2-3.4A.367.367,0,0,1,141.6,618.1Z"
                                    fill="#ffe8e8" stroke="#929292" stroke-width="0.3" />
                            </g>
                            <g id="Group_21" data-name="Group 21">
                                <path id="Path_77" data-name="Path 77"
                                    d="M145.3,644.3c-.7-4.1-1.4-8.2-2.1-12.2-.8-5-5-4-8.9-2.9a56,56,0,0,1-5.9,1.2c-2,.3-4.1.5-6.1.7-2.9.3-6.1.2-8.7,1.5-4.5,2.3-2.8,7.5-2.4,11.4.6,5.8,1.1,11.5,1.7,17.3a6.667,6.667,0,0,0,1.2,3.9c1.6,1.9,4.4,1.6,6.8,1.2,4.2-.8,8.4-1.5,12.7-2,4-.4,8.1-.1,12.1-1.1a1.084,1.084,0,0,0,.8-1.1A71.647,71.647,0,0,0,145.3,644.3Z"
                                    fill="#ffe8e8" stroke="#929292" stroke-width="0.3" />
                            </g>
                            <g id="Group_22" data-name="Group 22">
                                <path id="Path_78" data-name="Path 78"
                                    d="M422.5,608.3l6.6-.6c1-.1,2.8.5,3.5-.3a2.01,2.01,0,0,0,.4-.8c2.2-6.2,1.5-12.9,1-19.3-.2-2.3-.3-4.4-3-4.7a19.335,19.335,0,0,0-5.8.8c-14.7,3-31,2-44.9,8-8.4,3.6-16.2,8.8-24.1,13.4-3.7,2.1-3.5,5.9-3.8,9.6-.5,5.8,8.8,2.7,12,2.4,13-1.5,25.9-3.8,38.9-5.7C409.7,610.2,416.1,609.1,422.5,608.3Z"
                                    fill="#ffe8e8" stroke="#929292" stroke-width="0.3" />
                            </g>
                            <g id="Group_23" data-name="Group 23">
                                <path id="Path_79" data-name="Path 79"
                                    d="M527,497.1V497a30.961,30.961,0,0,0-1.5-5.2c-.6-2.2-1.2-4.5-1.8-6.7-1.2-4.5-2.4-9-3.7-13.5a73.168,73.168,0,0,0-4.8-13.1c-1.9-3.7-5.2-5.6-9-6.9l-5.4-1.8c-2.2-.7-3.8.2-5,2.1a22.151,22.151,0,0,0-2.9,7.1c-.9,3.9-2.9,7.6-4.6,11.2-1.5,3.2-3.1,6.3-4.6,9.5-.9,1.9-4,6.3-2.1,8.3a5.5,5.5,0,0,0,3.3,1.4c7,1.6,13.9,3.1,20.9,4.7,3.5.8,7.1,1.6,10.6,2.3l5.4,1.2a14.706,14.706,0,0,0,4.2.6,1.366,1.366,0,0,0,1.1-.4A1.483,1.483,0,0,0,527,497.1Z"
                                    fill="#ffe8e8" stroke="#929292" stroke-width="0.3" />
                            </g>
                            <g id="Group_24" data-name="Group 24">
                                <path id="Path_80" data-name="Path 80"
                                    d="M314.7,565.8c-.1-2.5-3.2-6.4-4.2-8-2-3.2-2.5-4.4-5.9-2.2-1.7.8-3.4,2.1-5.3,2.4-1.2.2-2.3-.4-3.6-.2a13.689,13.689,0,0,0-4.7,1.9,71.207,71.207,0,0,1-7.4,3.5c-1.8.7-5.4,1.3-6.3,3.2.4,0,.3.6,0,.9-2.4,2.5-7,2.3-8.8,5.1-1.7,2.5,4.2,12.3,7,12.2a6.3,6.3,0,0,0,2.9-1c10.3-5.4,21.2-9.5,31.8-14.1a13.593,13.593,0,0,0,3.7-2.1A1.413,1.413,0,0,0,314.7,565.8Z"
                                    fill="#ffe8e8" stroke="#929292" stroke-width="0.3" />
                            </g>
                            <g id="Group_25" data-name="Group 25">
                                <path id="Path_81" data-name="Path 81"
                                    d="M551.8,556.9c-4.8-1.7-9.9-2.2-15-2.9-4.2-.6-9.2-2.6-13.4-1.9a1.42,1.42,0,0,0-.6.2,1.2,1.2,0,0,0-.5.5c-2.1,2.5-2.4,6.1-2.7,9.3a91.364,91.364,0,0,0-.1,11.7,1.17,1.17,0,0,0,.8,1.1c3.8,1.6,8.2.1,12.1.2,2.9.1,5.8.3,8.7.5,2.5.2,5.4.9,7.9.2,2.1-.6,2.7-2.6,2.6-4.6,0-2-.3-4.1-.3-6.1a17.021,17.021,0,0,1,1.3-6.7A1.287,1.287,0,0,0,551.8,556.9Z"
                                    fill="#ffe8e8" stroke="#929292" stroke-width="0.3" />
                            </g>
                            <g id="Group_26" data-name="Group 26">
                                <path id="Path_82" data-name="Path 82"
                                    d="M590.8,564.5c0-2.2.1-4.3.1-6.5,0-1.3-.1-2.9-1.2-3.4a2.751,2.751,0,0,0-1.8-.2c-6.5.4-13.1,1.1-19.6.9-3.1-.1-7.6-.9-9.7,2-1.6,2.2-1.5,5.4-1.6,8a45.431,45.431,0,0,1-1,7.4,2.775,2.775,0,0,0,0,1.8c.4.9,1.7,1.1,2.7,1.1l27.9-.3a4.433,4.433,0,0,0,2-.3,3.6,3.6,0,0,0,1.8-2.2,9.878,9.878,0,0,0,.3-3C590.7,567.9,590.7,566.2,590.8,564.5Z"
                                    fill="#ffe8e8" stroke="#929292" stroke-width="0.3" />
                            </g>
                            <g id="Group_27" data-name="Group 27">
                                <path id="Path_83" data-name="Path 83"
                                    d="M615.1,540.8v-.5c0-.5-.1-1.1-.5-1.3-.2-.1-.4,0-.6,0a60.5,60.5,0,0,1-7.2,1.3c-1,.1-8.3.7-8,1.9-.2-.2-.4-.1-.6.1a.735.735,0,0,0-.2.6c-.8,4.6-.7,9.4-1.1,14,0,3-.5,6-.8,9-.2,2.7-1,5.8-.7,8.6,0,.3.2.4.4.5,2.2.9,4.7.6,7,.6,3.3,0,6.6.1,9.9-.1.6,0,.9-1,.9-1.5,0-1.4.1-2.8.1-4.2.1-4.9.5-9.7.8-14.5C614.9,550.4,615,545.6,615.1,540.8Z"
                                    fill="#ffe8e8" stroke="#929292" stroke-width="0.3" />
                            </g>
                            <g id="Group_28" data-name="Group 28">
                                <path id="Path_84" data-name="Path 84"
                                    d="M593.7,404.5a6.366,6.366,0,0,0-.6-1c-.4-.8-.8-1.6-1.2-2.3-.8-1.6-1.7-3.1-2.5-4.6q-2.55-4.5-5.4-9c-2.3-3.7-4.7-7.3-7.1-10.9-1.9-2.7-4-5.3-6.1-7.9-3.2-3.8-6.1-1.8-9.7.7a16.348,16.348,0,0,0-5.9,6.9,1.389,1.389,0,0,0-.5-1,32.06,32.06,0,0,0-6-3.4,46.558,46.558,0,0,0-7.1-2.6c-3.1-.9-5.4,3.1-6.8,5.3-1.6,2.4-2.8,5-4.3,7.4-3.7,5.7-7.3,11.6-10.7,17.5q-5.25,9.3-9.9,18.9c-1.6,3.3-2.8,6.8-4.3,10.2-1.4,3.3-3.4,6.2-4.9,9.4a1.1,1.1,0,0,0-.1,1.1c.5.8,3.4,1.3,4.2,1.6,1.9.7,3.8,1.4,5.6,2a55.953,55.953,0,0,0,11.2,2.9,65.709,65.709,0,0,0,23.4-1.1,3.168,3.168,0,0,0,1.5-.6c1.3-1,1.1-3,1.4-4.6a5.957,5.957,0,0,1,6.5-4.7,6.059,6.059,0,0,1,4.7,3.9c1,2.5.3,4.4,3.5,4.4,4.7,0,10.4-2.5,15.1-3.5a3.577,3.577,0,0,0,2.2-1.1c.8-1,.3-2.5-.3-3.7-1.3-3-2.6-6-3.6-9s-1.6-6.2-2.6-9.2a4.581,4.581,0,0,0-.7-1.4,2.883,2.883,0,0,0-2-.7c-8.5-.4-17.2,0-25.4-2.8a18.028,18.028,0,0,1-2.1-.8c.9-3.3.8-3.1,3.6-2.6,3.5.6,7,1.2,10.5,1.7.6.1,3.2.1,2.3-1.4a2.491,2.491,0,0,0-1.7-.8c-3.6-.5-7.1-1-10.7-1.5a145.9,145.9,0,0,1,10.5-29.5c6.7,11.4,13.5,22.8,20.2,34.1a4.809,4.809,0,0,0-3.3.6,70.627,70.627,0,0,0-5.7-7.8,6.41,6.41,0,0,0-2.5-2.1,4.416,4.416,0,0,0-4.1,1,12.909,12.909,0,0,0-2.5,3.6c-.4.7-.7,1.7,0,2.1.8.5,1.6-.6,2-1.5a4.866,4.866,0,0,1,2.6-3c2.4-.9,4.8,3.7,5.9,5.3.9,1.4,1.7,2.8,2.6,4.1a1.231,1.231,0,0,0,1,.5c.4,0,.6-.4.9-.5a2.953,2.953,0,0,1,1.3-.2,22.343,22.343,0,0,0,3.6-.2,20.653,20.653,0,0,0,4.9-1.2c3.4-1.3,6.3-3.5,9.2-5.6.1-.1.2-.1.3-.3A2.82,2.82,0,0,0,593.7,404.5Z"
                                    fill="#ffe8e8" stroke="#929292" stroke-width="0.3" />
                            </g>
                            <g id="Group_29" data-name="Group 29">
                                <path id="Path_85" data-name="Path 85"
                                    d="M640,373c-3.7-9.4-7.5-18.8-11.5-28.1-2.1-4.9-4.2-9.8-6.5-14.6-1.1-2.4-2.3-4.8-3.5-7.2-1-2-2-5.2-3.5-6.8a7.334,7.334,0,0,0-2.7-3.3c-2.7-1.5-11.8,6.5-14.3,8.3-4.3,3.2-8.7,6.3-13,9.4-6,4.2-12,8.3-18.1,12.4-5.1,3.4-10.9,6.4-14.3,11.7v.1c-.7.6-1.5,1.1-2.2,1.7-2.1,1.6,3.1,2.6,3.9,2.7,4.7.2,9.5.4,14.2.6a20.3,20.3,0,0,0,5.5-.2c4.4-.9,7.8-4.3,11.2-7.2,4.3-3.7,9.2-6.6,13.8-10,.1,0,.1-.1.2-.2s13.1,19.3,13.8,20.2c1.2,1.6,2.3,3.1,3.6,4.6-2.3,1.6-4.6,3.1-6.8,4.7-.9.6-7.2,4.1-7.2,5.1-2.3,1.6-4.5,3.3-6.7,5-2.1,1.6-5.3,3.2-6.5,5.6-1.4,2.8,2,5.7,3.5,7.8,1.6,2.2,2.9,4.7,4.5,6.9.3.4.9.8,1.2.5a1.421,1.421,0,0,0,.2.6c.3.3,20.2-14.5,21.9-15.7,6.3-4.3,13.2-7.7,19.3-12.4.2-.2.5-.4.5-.7a1.953,1.953,0,0,0-.1-.7A5.908,5.908,0,0,0,640,373Z"
                                    fill="#ffe8e8" stroke="#929292" stroke-width="0.3" />
                            </g>
                            <g id="Group_30" data-name="Group 30">
                                <path id="Path_86" data-name="Path 86"
                                    d="M647.5,386.8a30.471,30.471,0,0,0-2.4-5.6c-1-1.9-1.4-2.8-3.5-1.4q-16.35,11.1-33,21.6c-8.9,5.7-20,16.2-31.1,15.2-2.1-.2-.7,4.8-.3,5.7,8,18.6,17.1,38.8,21.2,59,.6,3.1,1.7,6.7,4.7,7.4,2.1.5,4.2-.9,5.3-2.7a10.941,10.941,0,0,0,1.1-6.2c-.2-5-1.7-9.8-2.3-14.7-1.8-15.9,6-31.9,17.5-43.1C634.9,412.3,652.7,403.5,647.5,386.8Z"
                                    fill="#ffe8e8" stroke="#929292" stroke-width="0.3" />
                            </g>
                            <g id="Group_31" data-name="Group 31">
                                <path id="Path_87" data-name="Path 87"
                                    d="M586.3,667.9c-.4-2.3-2.8-3-4.6-3.8-2.9-1.2-5.7-2.4-8.7-3.5-2.1-.8-4.6-2.6-6.9-2.4-.8.1-1.5,1.1-1,1.7a1.612,1.612,0,0,0,.7.4c.9.4,1.7.7,2.6,1.1-1.5,12.2-7,23.5-12.4,34.6a8.259,8.259,0,0,1-1.4,2.2c-1.4,1.3-3.6,1.3-5.5,1.2-9.2-.6-18.3-2.4-27.2-4.2h-.1c-3.4,0-4.2,10.9-4.1,13.2a.6.6,0,0,0,.1.4c1.8,3.7,6.8,3.5,10.3,4.2,4.9.9,9.7,2,14.5,3.3a159.742,159.742,0,0,1,15.3,4.8c2.2.8,4.6,1.8,6.8,1.1,2.7-.8,4.3-3.5,5.5-6a205.512,205.512,0,0,0,12-30.5c1.6-5.2,3-10.5,4.1-15.9C586.3,669,586.3,668.4,586.3,667.9Z"
                                    fill="#ffe8e8" stroke="#929292" stroke-width="0.3" />
                            </g>
                            <g id="Group_32" data-name="Group 32">
                                <path id="Path_88" data-name="Path 88"
                                    d="M201.2,563.6c-1.3-4.3-2.9-9.2-5.6-12.9a1.231,1.231,0,0,0-1.3-.5,131.033,131.033,0,0,0-17,5.8,12.2,12.2,0,0,0-5.3,1c-2.4.8-4.9,1.7-7.3,2.5-1.7.6-3.6.8-5,2-.2.2-.5.5-.5.8a1.431,1.431,0,0,0,.3,1.1c1.4,2.7,2.8,5.3,4.1,8.1.7,1.4,1.3,2.8,2,4.2.5,1,2,3,2,4.1a.891.891,0,0,0,.8.5c8.1-.1,14.2-4.8,21.6-7.4,3.2-1.2,6.8-1.7,9.7-3.6a4.689,4.689,0,0,0,1.8-1.9,5.015,5.015,0,0,0-.2-3.6A.309.309,0,0,1,201.2,563.6Z"
                                    fill="#ffe8e8" stroke="#929292" stroke-width="0.3" />
                            </g>
                            <g id="Group_33" data-name="Group 33">
                                <path id="Path_89" data-name="Path 89"
                                    d="M107.9,649.8c-.7-5.4-1.5-10.7-2.3-16-.8-5.5-1.4-10.9-2-16.4-.6-5.3-1.3-10.7-2-16-.3-2.1-.3-4.8-3.2-4.3a106.927,106.927,0,0,0-13.6,3.1c-2.1.6-4.8,1.9-3.9,4.6v.7q5.4,33.45,11,66.8c.1.3.1.7.3.9,1.1,1.5,5.1-.3,6.4-.6,2.6-.7,5.3-.9,7.8-1.8,1.9-.7,2.2-1.2,2.5-3.3C109.8,661.7,108.6,655.5,107.9,649.8Z"
                                    fill="#ffe8e8" stroke="#929292" stroke-width="0.3" />
                            </g>
                            <g id="Group_34" data-name="Group 34">
                                <path id="Path_90" data-name="Path 90"
                                    d="M403.2,390.3a2.41,2.41,0,0,0-.7-1.8,6.368,6.368,0,0,0-1.8-1c-3.7-1.3-7.5-3.1-11.5-3.1a1.709,1.709,0,0,0-1.3.7.215.215,0,0,0-.2.2c-2.7,2.7-4.3,6.5-6.1,9.8-2.1,3.8-4.2,7.6-6.3,11.5-.9,1.6-1.7,3.5-.7,5a4.968,4.968,0,0,0,1.9,1.3c3,1.4,8.5,4.9,11.4,1.6,1.8-2,2.8-5.4,4.1-7.8a44.638,44.638,0,0,1,5.4-7.5c1.8-2,3.9-3.8,5.2-6.2A4.7,4.7,0,0,0,403.2,390.3Z"
                                    fill="#ffe8e8" stroke="#929292" stroke-width="0.3" />
                            </g>
                            <g id="Group_35" data-name="Group 35">
                                <path id="Path_91" data-name="Path 91"
                                    d="M442.2,379.8a11.507,11.507,0,0,0-1.7-.6c-.9-.3-1.8-.8-2.7-1.2a52.062,52.062,0,0,1-5.2-2.8A92.957,92.957,0,0,1,419.4,365c-1.8-1.6-2.1,1.3-2.1,2.6-.1,6.9-1.5,13.9-5.3,19.7-3.6,5.5-8.5,10-12.6,15.2-.9,1.2-2.2,2.6-2.3,4.2-.2,3.1,3.3,5.7,5.4,7.4,3.2,2.6,6.9,1.6,10.1-.7,2.6-1.8,4.5-4.3,6.6-6.6,3.8-4.2,8.2-8,12.4-11.9,2-1.9,14.2-12.3,11-14.8A1.38,1.38,0,0,1,442.2,379.8Z"
                                    fill="#ffe8e8" stroke="#929292" stroke-width="0.3" />
                            </g>
                            <g id="Group_38" data-name="Group 38">
                                <g id="Group_36" data-name="Group 36">
                                    <path id="Path_92" data-name="Path 92" d="M474.5,345.7Z" fill="#ffe8e8"
                                        stroke="#929292" stroke-width="0.3" />
                                </g>
                                <g id="Group_37" data-name="Group 37">
                                    <path id="Path_93" data-name="Path 93"
                                        d="M492.4,306.2c-1.6-2.2-6.2-3.4-8.3-4.1-2-.7-6.3-3.9-8.4-2.7-1.8,1-3.2,6-4,7.8-1.6,3.6-3,7.2-4.5,10.8-1.6,3.9-3.2,7.7-5,11.5-1.1,2.3-5.9,8-4,10.4,3.1,3.9,10,6.6,14.6,7.8,4.9,1.3,8.7-10.6,9.9-13.6,3.2-8.3,6.6-16.6,10-24.9A3.353,3.353,0,0,0,492.4,306.2Z"
                                        fill="#ffe8e8" stroke="#929292" stroke-width="0.3" />
                                </g>
                            </g>
                            <g id="Group_39" data-name="Group 39">
                                <path id="Path_94" data-name="Path 94"
                                    d="M511.7,328.2c-.5-1.8-3.7-4.2-4.5-5.1-2-2-4.4-4.2-7.4-4.2a5.133,5.133,0,0,0-2.4.7c-6.6,3.8-10.2,12.9-12.8,19.6-4.7,12-12.3,22.7-21.1,31.9-8.5,8.9-19.7,15.2-27.6,24.7-4.5,5.4-8.3,11.7-14.5,15.4-1.6.9-13.8,5.7-11.9,8,1.6,2.1,4.1,3,6.1,4.7,2.3,2,3.1,4,.5,6.2-2,1.7-4,3.4-5.9,5.1a100.986,100.986,0,0,1-11.1,8.7c-1.9,1.2-4.2,2.7-4.2,4.9,0,2.1,2.8,5.1,4.2,6.7a6.918,6.918,0,0,0,7.3,1.9c7-2,13.9-6.5,19.9-10.5a68.87,68.87,0,0,0,17-15.3c1.1-1.5,2.2-3.1,2.2-5,0-3-2.8-5.1-4.9-7.2a2.589,2.589,0,0,1-.7-1.1,2.715,2.715,0,0,1,.6-1.7c9.6-13.5,21.2-25.7,31.4-38.7,5.7-7.2,11.3-14.5,16.9-21.9,2.8-3.7,5.5-7.4,8.3-11.1,1.8-2.5,4-4.7,5.7-7.2a36.322,36.322,0,0,1,8.3-8.3c.2-.2.5-.3.6-.6C511.8,328.8,511.8,328.5,511.7,328.2Z"
                                    fill="#ffe8e8" stroke="#929292" stroke-width="0.3" />
                            </g>
                            <path id="Path_95" data-name="Path 95"
                                d="M470,590.1a3.553,3.553,0,0,0-1.1-1.6c-2.7-2.2-6.9-1.9-10.2-2.5q-5.55-1.05-11.1-1.8c-1.7-.2-6.8-1.8-8.2-.3-1.6,1.8-1.9,4.7-2.2,7-.4,2.5-1.6,5.8-.5,8.3.5,1.3,1.5,2.4,1.7,3.7.2,1.9-2,4.9.1,6.4,2.1,1.6,5,1.4,7.5,1.6,3.6.2,7.2.9,10.7,1.3,2.2.3,5.4,1.3,7.4-.1,1.9-1.3,2.1-4,2-6.4,1.6.2,2.6-1.6,3-3.2a35.39,35.39,0,0,0,1.4-7.9A14.769,14.769,0,0,0,470,590.1Z"
                                fill="#ffe8e8" stroke="#929292" stroke-width="0.3" />
                            <path id="Path_96" data-name="Path 96"
                                d="M513.2,693.5h0c-1-3.2-8.1-3.5-10.7-3.9-4.7-.7-9.5-1-14.3-1.3a211.759,211.759,0,0,0-23.9-.2A11.281,11.281,0,0,1,458,687c-2.5-1.4-4.6-6.3-1-7.8,2.4-1,5.5,1.4,7.4,2.6,4,2.5,9,2.3,13.6,2a5.931,5.931,0,0,0,2.3-.5c1.2-.6,1.7-2,2-3.3a337.931,337.931,0,0,1,11.6-40.4c2.3-6.7,4.8-13.3,7.4-19.9,1.2-3.1,2.3-6.1,3.2-9.2.8-2.7,2.1-5.6.4-8.2-2-3.1-7.7-4.6-10.8-6-4.5-2.1-9.1-4-13.8-5.8a5.45,5.45,0,0,0-2.2-.5,3.061,3.061,0,0,0-2.6,1.9c-1.7,3.2-3.7,6.6-4.5,10.2-.4,2.2-.5,4.4-.9,6.5-.3,1.8-1.9,4.2-1.1,6,.6,1.6,2.6,2.2,4.3,2.5,2.3.5,4.6.9,6.9,1.4,1.2.2,2.6.6,3,1.8a4.3,4.3,0,0,1-.2,2.5c-1.5,4.6-3,9.3-4.5,13.9-2.4,7.3-4.8,14.5-7.8,21.5a1.555,1.555,0,0,1-.6.8,1.978,1.978,0,0,1-1.1.2c-9.4-.4-18.7-1.1-28-2.2-2.6-.3-5.6-1.2-7.6,1.1-2,2.2-2.1,6.8-2.3,9.7-.9,13.3,5.2,25.2,10.7,36.8,1,2,2.1,3.6,4.4,4.2,2.1.5,4.3.2,6.4.2,2,0,4,.5,6,.6,5.3.4,10.6.8,16,.9,6.2.2,12.3.2,18.5-.2,2.9-.2,5.7-.4,8.6-.8,2.3-.3,5.4-.1,7.3-1.7,2.7-2.2,3.2-8,4.1-11.1A6.835,6.835,0,0,0,513.2,693.5Z"
                                fill="#ffe8e8" stroke="#929292" stroke-width="0.3" />
                            <g id="Group_40" data-name="Group 40">
                                <path id="Path_97" data-name="Path 97"
                                    d="M540.1,622.1c-.6-2.4-3.2-4.4-4.9-6.1a19.423,19.423,0,0,1-4.7-6.6,14.431,14.431,0,0,0-1.3-3.1c-1-1.6-2.8-2.5-4.5-3.3a50.336,50.336,0,0,0-8.3-3.5,1.625,1.625,0,0,0-1.5.3,3.552,3.552,0,0,0-.4.9,54.916,54.916,0,0,1-2.1,6.9c-3.2,8.8-6.6,17.6-9.7,26.5-1.5,4.5-3,9-4.4,13.6l-2.1,6.9c-1.6,5.3-3.5,10.5-5.6,15.6-1.6,3.9-3,9.6,1.8,11.8,3.2,1.5,6.7,1.8,10.2,2.6,2.3.5,4.5,1.2,6.7,1.6,1.9.4,4.8,1,6.6.1,4-1.9,4.7-7.5,5.7-11.2a122.1,122.1,0,0,1,4.6-14.5,45.889,45.889,0,0,0,1.7-4.8c.7-3.1-1-5.6-1.1-8.6a6.131,6.131,0,0,1,1.7-4.3c1.7-1.8,4.2-1.7,6-3.3,1.6-1.4,2.3-3.5,3-5.4.7-2,1.3-4.1,1.9-6.2C540,626,540.6,624,540.1,622.1Zm-22.8,59.8h0c0-.1.1-.1,0,0Z"
                                    fill="#ffe8e8" stroke="#929292" stroke-width="0.3" />
                            </g>
                            <g id="Group_41" data-name="Group 41">
                                <path id="Path_98" data-name="Path 98"
                                    d="M554.7,653.5c-2.1-.6-4.4-1.6-3.5-3.6,2.1-4.4,4.4-8.6,6.9-12.8.1-.3.3-.5.3-.8,0-.5-.4-.8-.8-1.1-4.1-3.3-8.9-6-12.8-9.5-1.1-1-1.6-.6-2,.8-.5,1.5-1,3.1-1.6,4.6-.6,1.6-1.3,3.3-2,4.9-.6,1.3-1.7,2.9-1.8,4.3-.1,1.5,1.1,2.4,1.5,3.7a7.674,7.674,0,0,1-.1,4.5,5.036,5.036,0,0,1-1.7,3.1c-.8.6-1.8.9-2.6,1.5a5.219,5.219,0,0,0-1.6,3c-2.4,8.2-5.4,16.3-8.2,24.5-.6,1.8-1.5,4.1-.8,6,1,2.7,4.6,3.4,7,4,4.2,1.1,8.2,2.8,12.4,3.7,3.6.8,7,.5,9.2-2.9,4.6-6.9,5.9-15.6,9.1-23.2,1.2-2.8,3.1-6.8,1.6-9.8-1.2-2.5-4-3.5-6.5-4.3C556.4,654,555.6,653.8,554.7,653.5Z"
                                    fill="#ffe8e8" stroke="#929292" stroke-width="0.3" />
                            </g>
                            <path id="Path_99" data-name="Path 99"
                                d="M731.4,381.1c-.1-2.7-1.6-6.4-1.9-8.1-.8-4.3-2-9.3-5.9-11.2-2.4-1.2-5.3-1-8-.6-3.4.5-13.7.9-16,3.4-1.6,1.7-.5,4.8-.1,6.9.9,4,1.7,16.3,6.4,17.7a5.341,5.341,0,0,0,2.5-.1c6.3-1.4,12.7-2.7,19-3.9a6.4,6.4,0,0,0,3.3-1.3A4.857,4.857,0,0,0,731.4,381.1Z"
                                fill="#ffe8e8" stroke="#929292" stroke-width="0.3" />
                            <path id="Path_100" data-name="Path 100"
                                d="M778.1,273.1c-1.8.3-3.6,1.3-5.2,1.7-11,2.7-22.5,3.1-33.8,3.6-4,.2-17.9-.8-19.4,4.5a6.931,6.931,0,0,0,.1,3.2c1.2,6.5,2.4,12.6,5.4,18.6,4.3,7.6,16,2.6,23.1,1.5,3-.5,6.1-1,8.5-2.7a21.318,21.318,0,0,0,4.2-4.8c5.4-7.6,11.6-14,20.1-18.3,2.3-1.2,2.5-4.6.7-6.4A3.7,3.7,0,0,0,778.1,273.1Z"
                                fill="#ffe8e8" stroke="#929292" stroke-width="0.3" />
                            <path id="Path_101" data-name="Path 101"
                                d="M748.5,310.3a2.953,2.953,0,0,0-1.3-.2c-5.6.1-17.9,0-18.9,6.5-.7,4.5,1.3,9.3,1.3,13.8a52.789,52.789,0,0,1-3.5,19.3c-1.2,3-3.3,8.1.3,10.5,3,1.9,7.9,1.6,11.3,1.7a5.245,5.245,0,0,0,1.8-.2c3.7-1.4,2.5-10.8,2.6-13.7a94.645,94.645,0,0,1,6.9-34c.5-1.2.9-2.8-.2-3.5C748.7,310.4,748.6,310.4,748.5,310.3Z"
                                fill="#ffe8e8" stroke="#929292" stroke-width="0.3" />
                            <path id="Path_102" data-name="Path 102"
                                d="M663.8,363.5a21.756,21.756,0,0,0-1.5-6.7c-5.2-15.4-9.1-31.1-13.5-46.8-.8-2.5-1.8-4.8-2.8-7.2-.8-2-1.5-4.2-3.6-5.2a7.661,7.661,0,0,0-4-.5,46.655,46.655,0,0,0-7.5,1c-2.2.5-3.8,1.7-5.8,2.5-.1,0-.1.1-.2.1a32.411,32.411,0,0,0-6,3.9c-1.3,1-2.5,2.4-2.3,4.1a4.191,4.191,0,0,0,.4,1.5,87.348,87.348,0,0,0,4.7,10.9c1.7,3.5,3.4,7.1,5,10.7,3.3,7.3,6.3,14.6,9.3,21.9,2.1,5.2,4.1,10.5,6.4,15.6.8,1.7,2,3.5,3.8,4a9,9,0,0,0,4,0,39.273,39.273,0,0,0,7.6-2.3,10.456,10.456,0,0,0,4.6-3.1A6.816,6.816,0,0,0,663.8,363.5Z"
                                fill="#ffe8e8" stroke="#929292" stroke-width="0.3" />
                            <path id="Path_103" data-name="Path 103"
                                d="M388.7,579.2c-2.7-5.2-6.8-9.5-9.8-14.4a16.231,16.231,0,0,1,7-3c1.6-.3,1.5-.6,1.1-2.2-1.7-5.5-3.4-11.1-5.1-16.6a4.725,4.725,0,0,0-1-2c-2.1-2.1-6.5,2.5-8.3,3.5-11.7,6.9-25.2,11.2-37.5,16.9-12.9,5.9-25.8,12.1-38.4,18.5a130.479,130.479,0,0,1-13.3,5.8c-2.5,1-5,1.7-7.4,2.8-.6.3,4.6,10.5,5.1,11.5,1.7,3,3.3,6.1,6.7,7.3,4.3,1.6,8.9,2.6,13.3,4,11.2,3.4,24-.2,35.3-2,6-.9,11.3-4.3,16.1-7.8,5-3.7,10.7-6.7,16.1-9.7,6.8-3.8,13.8-7.6,20.7-11.4A13.322,13.322,0,0,1,388.7,579.2Z"
                                fill="#ffe8e8" stroke="#929292" stroke-width="0.3" />
                            <path id="Path_104" data-name="Path 104"
                                d="M147.9,670.2a17.506,17.506,0,0,0-.4-3.2,1.414,1.414,0,0,0-1.9-1.3c-9.3,1.5-18.5,3.3-27.9,3.6-2.5.1-3.1-.3-3.4,2.2q-.45,4.2-.6,8.4c-.1,1.5-1,6,.6,7.1a2.257,2.257,0,0,0,1.6.2c9.2-.7,17.7-4.9,25.8-9,2.6-1.3,5.1-2.7,5.8-5.7A5.867,5.867,0,0,0,147.9,670.2Z"
                                fill="#ffe8e8" stroke="#929292" stroke-width="0.3" />
                            <g id="Group_42" data-name="Group 42">
                                <path id="Path_105" data-name="Path 105" d="M1544,530.6" fill="#ffe8e8" stroke="#929292"
                                    stroke-width="0.3" />
                                <path id="Path_106" data-name="Path 106"
                                    d="M1573.2,513.7c21.5-17.9,41.9-37.4,61.7-57.1l.6-.6c5.1-5.1,10.7-12.1,8.2-18.9-2-5.4-8.6-8-14.4-7.1-5.7.9-10.6,4.4-15.1,8.1-17,14-30.9,31.5-47.8,45.7-43.8,37.1-103.6,49.1-151.9,80-12.4,7.9-24.8,17.4-39.4,19.3-3.1.4-6.7.7-8.3,3.3a9.026,9.026,0,0,0-1,4.9c-.1,3.9.1,8.3,2.9,11.1,3.4,3.3,9.1,2.6,13.2.2s7.4-5.9,11.6-8.2c8.7-4.7,19.4-2.8,29.1-4.9s17.9-8.1,26.6-12.8c22.3-12.1,47.8-16.2,70.6-27.2a84.35,84.35,0,0,0,23.9-16.5"
                                    fill="#ffe8e8" stroke="#929292" stroke-width="0.3" />
                            </g>
                            <path id="Path_107" data-name="Path 107"
                                d="M1558.2,481.8a52.206,52.206,0,0,1-3.8-7.4l-.1-.2s-6.7-2.5-7-2.6c-.6-.2-4.2,2.4-4.8,2.8-2.5,1.4-5,2.9-7.4,4.4-4.8,2.9-9.5,5.8-14.2,8.8-9.6,6-19.2,11.9-29.4,16.6-15,7-30.9,11.4-46.2,17.6-13.9,5.6-26,13.5-38.7,21.3l-22,9.1-5.8-7-6.5-3.9-2.5-5.6-17.4-8.4-12.8,2.1-17.8-3h-.1l-.1.1c-6.8,2.8-20.5,7.3-20.3,16.1a26.549,26.549,0,0,0,1.5,6.9c.5,1.5,10.5,1.6,12,1.6,3.7.1,7.3-.1,11,0,7.8.3,15.8,1.4,22.7,5.2,5.4,3,9.8,7.4,14.6,11.3,2.6,2.1,5.5,4.2,8.7,5.1,3.1.9,6.5.4,9.7.6l11-4.2c8.1-5.1,16.7-9.9,24.5-15.4,13.8-9.6,29.3-16.2,44.9-22.2,12.6-4.9,25.3-9.5,37.5-15.2,20.7-9.6,39.8-22.3,59.2-34.1C1558.5,482.3,1558.2,481.8,1558.2,481.8Z"
                                fill="#ffe8e8" stroke="#929292" stroke-width="0.3" />
                            <path id="Path_108" data-name="Path 108"
                                d="M1259.9,651.2l-4.8-2.6-16.8-9.5-21.9-1.3L1165.2,623l-8.3,21.8-2.7-1.5,7.3-21-19.4-7-7.7,22.2-2.7-2.6,7.8-22.2-17.8-9.7-8.8,23.3-3.1-1.2,9.4-24.6-13.2-.9-11.8,1.5-9.7,4.5-11.9,3L1025,591.4l-68.3-16.9-20.4-2.4-38.2-21.7-13.9-9.1-.3.4h0l-29.3-8.1h0l-.5-.1h0l-.5-.1-1.3,7,18.2,14.7,15,8.1,50.3,25.2,51.4,9.8,18.4,5.3,11.6,1.7,23.8,6.2,42,10.1c1.1.3,2.1.6,3.2.9l18.5,6,37,18.8,24,6.5,38.7,6.4,22,3.8,14.2,3.3,24,4.1h.2l6.5-4.4Z"
                                fill="#ffe8e8" stroke="#929292" stroke-width="0.3" />
                            <path id="Path_109" data-name="Path 109"
                                d="M1199.9,532.7a43.222,43.222,0,0,0-8.2-2.6c-1.2-.3-2.5-.6-3.8-.9a33.249,33.249,0,0,1-14.1-8.1c-9.5-9.3-21.5-10.7-33-10.8a4.69,4.69,0,0,0-3.1,1.1,3.718,3.718,0,0,0-3.2,2.9,44.791,44.791,0,0,0-1.1,7.2,40.018,40.018,0,0,1-1.5,8.4,3.747,3.747,0,0,0,.3,2.9,4.06,4.06,0,0,0,2.6,2.2,63.5,63.5,0,0,1,12.7,5.8c1.3.7,2.5,1.4,3.8,2.1a116.313,116.313,0,0,0,16.8,7.2,26.066,26.066,0,0,0,8.6,1.3,63.757,63.757,0,0,0,8.7-.7l.4-.1a34.347,34.347,0,0,1,6.4-.1,40.058,40.058,0,0,0,6,0c4-.4,8.7-2.7,8.8-8.2C1207.2,538.4,1204.5,534.9,1199.9,532.7Z"
                                fill="#ffe8e8" stroke="#929292" stroke-width="0.3" />
                            <path id="Path_110" data-name="Path 110"
                                d="M1134.2,568.2c-.3-1.1-.5-2.2-.7-3.3-1-6.9-.9-13.5-3-20.2a4.019,4.019,0,0,0-.8-1.6,3.167,3.167,0,0,0-1.2-.8c-3.3-1.5-6.7-3.8-10.5-3.3-10.3,1.2-20.7-.6-31-.2-22.8.9-45.8.9-68.6,3.5-1.5.2-20.7,2.3-20.7,2.3.3,2.9.6,5.7.8,8.6.4,4.2.3,8.6,1.9,12.6a70.912,70.912,0,0,0,3.9,7.8c1.1,2,2,4.5,3.6,6.1,2.6,2.5,8.1,3.2,11.4,4.3,5.1,1.7,10.3,3.4,15.4,5.1,10.1,3.4,20.2,6.9,30.3,10.3,2.8,1,5.7,1.9,8.5,2.9l12.4-4.2c9.8-1.7,19.7-3.3,29.5-5,1.5-.3,12.1,4.5,11.4,5.8,4-7.1,8.4-14,12.7-21l.3-.6c.3-1.7-3.1-4-4-5.3A21.657,21.657,0,0,1,1134.2,568.2Z"
                                fill="#ffe8e8" stroke="#929292" stroke-width="0.3" />
                            <path id="Path_111" data-name="Path 111"
                                d="M1164,597.5l-3.9-7.3-6.7-3.4-13.2,18.8,15.8,9.2,8-5.8,1-6Z" fill="#ffe8e8"
                                stroke="#929292" stroke-width="0.3" />
                            <path id="Path_112" data-name="Path 112"
                                d="M987.6,526.6l-7.3-2.2-1.6-3.3.5-3.2,3.3-2-.1-.3c-.2-.7-4-17.2-6.2-22.6l-.2-.4-59.1,12.9-4,32.8,17.8,1.7,1.1-18.1,2.9-7.1,4.7-1.1,1.6,3.2-3,2.5-2.6,4.5-.3,6.2.6,5.5,3.5,3.5,5.8-2.2,6.6-1.5,20.9-.9,20.4-1.3Z"
                                fill="#ffe8e8" stroke="#929292" stroke-width="0.3" />
                            <path id="Path_113" data-name="Path 113"
                                d="M1062.2,470H1039c-.4.1-35.2,12.3-46.7,16.2-4.2,1.4-16.7,5.6-16.7,5.6l-.5.2,6.4,23.2,6.2-.1,4.1,1,7.9-3.1,14-4.7,26.9-9.9,13.3-3.1,12.6-3.6Z"
                                fill="#ffe8e8" stroke="#929292" stroke-width="0.3" />
                            <path id="Path_114" data-name="Path 114"
                                d="M1158.8,434.4l-18.4,2.7-6.2,9.3L1114,457.6l.3.4-25.6,8.1-.5.2,4.5,14.2,31.5-7.4,20.9-7.5,6.2-8.1,13.5-5.2Z"
                                fill="#ffe8e8" stroke="#929292" stroke-width="0.3" />
                            <path id="Path_115" data-name="Path 115"
                                d="M1205.6,465.8a1.269,1.269,0,0,0-.1-.6h0c-.5-3-2.5-4.7-5.1-5.8l-.1-.1h-.2c-3.6-1.4-8.2-1.5-11.3-1.7-4.9-.4-9.9-.5-14.9-.7h-.1a27.218,27.218,0,0,0-6.7,3.1,80.226,80.226,0,0,1-9.1,6.1,141.03,141.03,0,0,1-19.9,8.7c-9.2,3.4-18.5,6.7-27.8,9.8-6.5,2.2-13.1,4.4-19.6,6.6-3.7,1.2-7.9,2-11.3,4.1-4,2.4-6.1,6.6-7.8,10.9-.1.3,16,.4,17.5.2,11-1.5,21.6-5.3,31.7-9.8,3.1-1.4,6.2-2.9,9.4-4a67.985,67.985,0,0,1,9.9-2.4c10.5-1.9,21.2-3.2,31.4-6.5a24.243,24.243,0,0,1,8-1.6c3.1.1,6.4.8,9.4.1,3.2-.7,5.9-2.8,8.5-4.7a26.743,26.743,0,0,0,5.6-5C1204.5,470.5,1205.8,468.3,1205.6,465.8Z"
                                fill="#ffe8e8" stroke="#929292" stroke-width="0.3" />
                            <path id="Path_116" data-name="Path 116"
                                d="M1333,406.1l-1.2-10-.8-4.7-6.7,1.4-6.2,4.4-6,5.3-7.5,4.3-11.6,2.8-10.7-.8h-.1l-12.4,3.4-13.5,6-13.4,5.2-18.6,1.7-15.3,1-14.3,1.3-21.9,2.8,7.6,18.4,11.7-1,14.2-.7,15,.6,18.8-1.8,22.1-5.2,15.4-5.4,13.8-2.9,13-4.5,14.8-5.3,8.8-2.3,5.7-8.2Z"
                                fill="#ffe8e8" stroke="#929292" stroke-width="0.3" />
                            <path id="Path_117" data-name="Path 117"
                                d="M1333,557.5l-39.1-3.7-33.3-3.6h-24.9l-23.2.9-18.8.5-2.6,10,143.4,53,.6.3,6.6-52.6.1-.4Z"
                                fill="#ffe8e8" stroke="#929292" stroke-width="0.3" />
                            <path id="Path_118" data-name="Path 118"
                                d="M1324.6,620.5a36.816,36.816,0,0,0-4.5-2.1c-6.2-2.4-12.3-4.8-18.5-7-13.3-4.8-26.8-9.2-40.2-14-5.9-2.1-11.7-4.2-17.6-6.5-5-2-10.2-4.8-15.4-6.1L1200.1,574a1.422,1.422,0,0,0-.6-.2c-4.7-2.1-45.7-21.1-55.5-24.8a1.673,1.673,0,0,0-1.2.1c-2.8,1.5-3.8,7.8-3.7,10.6.2,5.1,3.5,9.8,7.1,13.2,4.7,4.3,10.4,7.2,15.2,11.4,5,4.4,7.1,10.2,7.8,16.7.6,5.2-.8,10.6.8,15.6a4.836,4.836,0,0,0,1.2,2.1c1.2,1.1,3.2,1.2,4.7,1.4a41.091,41.091,0,0,1,6.8,2.1,21.724,21.724,0,0,0,2.4.7c.2.1,1.4.3,1.4.5a7.389,7.389,0,0,1,0-2.1c.1-3.9.2-7.9.4-11.8.1-3.4-.3-6.7.7-10,0-.1.1-.2.2-.3h.3c6.5,1,13,3.3,19.4,5.1,9.8,2.4,19.4,5.5,29.1,7.9-.6,4.8-3.5,8.6-5.3,13-1.3,3.1-2.7,6.2-3.7,9.3l.5.1c6,1.2,12.3-.3,17.7,3.3,7.9,5.2,16.1,10,24.3,14.8,2.5,1.4,5,2.8,7.4,4.3a24.052,24.052,0,0,0,7.2,3.5,10.737,10.737,0,0,0,9.7-2.6,66.421,66.421,0,0,1,16.3-9.9,71.949,71.949,0,0,1,8.8-3.3c2.7-.9,5.6-1.3,7.7-3.4,3.3-3.2,4.1-9.2,3.1-13.5C1329.8,624.4,1327.4,622.1,1324.6,620.5Z"
                                fill="#ffe8e8" stroke="#929292" stroke-width="0.3" />
                            <path id="Path_119" data-name="Path 119"
                                d="M1389.5,385.2c-.8.1-1.4.1-1.8.2a133.27,133.27,0,0,1-18.9,1.2c-2,0-16.3-1.5-17.3.2l-6.9,12.7L1328,428.7c-2.6.7-28.3,7.6-34.1,8.6l-30.9,8.5,2.4,31.2c10.8-3.9,21.5-7.8,32.3-11.6,8.2-3,16.3-6.1,24.5-9,9.8-3.6,19.7-6,28.6-11.9,5.4-3.6,10.1-8.2,14.7-12.8a299.77,299.77,0,0,0,38.3-48.7C1403,384.3,1393.8,384.9,1389.5,385.2Z"
                                fill="#ffe8e8" stroke="#929292" stroke-width="0.3" />
                            <path id="Path_120" data-name="Path 120"
                                d="M1445,394.5c-3.2.7-4.5,3.2-7.3,5.1-4.3-4-8.8-8-13.2-12l1.9-4.2-3.9-6-11.7,3.5-2.3,7.4L1396,405.5l11.6,13.3-5.5,4.7-12.7-9.9L1354.6,450l-28.2,13.2c-5.5,1.6-10.9,3.2-16.3,4.9-2.9.9-7.6,1.1-9.3,3.9,3.2,1.7,11.3-.7,15.1-1,2.8-.2,5.7-.4,8.5-.6,12.6-.8,24.6,2.8,37-1.8,4.3-1.6,8.3-3.9,12.5-5.8,14.3-6.3,31.5-7.3,42.5-18.3,6.2-6.3,9.4-15,14.6-22.2,7-9.7,17.4-16.4,24.9-25.7-2.9-1.2-5.9-2.5-9-2.5A9.253,9.253,0,0,1,1445,394.5Z"
                                fill="#ffe8e8" stroke="#929292" stroke-width="0.3" />
                            <path id="Path_121" data-name="Path 121"
                                d="M1460.3,406.6a5.671,5.671,0,0,1-.8-1.3c-.6-1.1-1.1-2.2-1.7-3.3-.2-.4-.9-1.3-.9-1.8l-8.6,7.8-8.3,10.5-7.3,7.7a49.666,49.666,0,0,0-4.2,6,53.222,53.222,0,0,0-5.1,9.4,10.89,10.89,0,0,1-3.5,4.9c-1.3,1.2-2.5,2.3-3.8,3.5-.6.5-1.1,1-1.7,1.5a14.934,14.934,0,0,1-1.2,1.4l-.6.3c-3.4,1.3-6.9,2.6-10.3,3.9-4.1,1.5-8.2,2.9-12.3,4.4-2.3.8-4.6,1.6-6.9,2.5-2.2.8-4.8,2.2-7.1,2.1v1c0,.1,18.1.3,20,.4,5.3,0,10.6-.2,15.8.8,4,.8,8.2,2.1,12.1.8,3.6-1.2,6.2-4.3,8.5-7.3q6.45-8.85,12-18.3a6.431,6.431,0,0,0,1-2.4,9.469,9.469,0,0,0-.2-2.9c-.6-4.5,2.2-8.8,5.6-11.9s7.4-5.3,10.7-8.5c1.5-1.5,3-3.5,2.6-5.6C1463.7,410.2,1461.7,408.5,1460.3,406.6Z"
                                fill="#ffe8e8" stroke="#929292" stroke-width="0.3" />
                            <path id="Path_122" data-name="Path 122"
                                d="M1002.8,573.2a18.044,18.044,0,0,1-2.7-3.9,33.363,33.363,0,0,1-2.3-7.6c-.6-3.6-1-7.2-1.8-10.7-.7-2.9-.8-6.1-3.2-8.2-1.1-1-3.5-.7-4.9-.8-2.3-.1-4.6-.2-7-.3-4.7-.1-9.3.1-13.9.4.7-.1,3.4,2.4,4,2.9a15.245,15.245,0,0,1,4.1,4.3,11.538,11.538,0,0,1,1.1,9.6,11.817,11.817,0,0,1-9.7,7.6,12.3,12.3,0,0,1-11.1-5.4,12.48,12.48,0,0,1-1.4-9.8c.9-3.5,4.1-5.5,7.1-7.1l5.5-2.9-8.5,1.4-16.9,3.7c-2.7.6-5.3,1.6-8,2.4a21.237,21.237,0,0,1,.4,8.7c-.1.6-1.3,5.9-.9,6,13.6,4.1,27.5,7,41.2,10.7,7.9,2.1,15.8,4.4,23.8,6.5,1.7.4,3.5.9,5.1.3a3.581,3.581,0,0,0,1.9-1.5,3.663,3.663,0,0,0-.3-3.5A10.789,10.789,0,0,0,1002.8,573.2Z"
                                fill="#ffe8e8" stroke="#929292" stroke-width="0.3" />
                            <path id="Path_123" data-name="Path 123"
                                d="M761.9,636.2c-.4-8.5-1.4-27.5-1.2-27.5-19.5-.5-39.2-.5-58.6-1.8-9.6-.6-19.5,0-29.2-.1l-29.3-.3c-16.2-.3-32.4-.6-48.6-1.2-3-.1-8.3-1.3-11.1-.3-1.5.6-1.3.7-1.6,2.5-.8,4.1-2.6,10.6.1,14.3,3.3,4.5,8.7,8.2,13.3,11.3,5.6,3.9,12.4,4.2,18.6,6.6,7,2.8,13.1,7.6,19.6,11.4,3.5,2.1,7.2,3.9,10.8,5.7,2.5,1.2,4.9,2.2,7.7,1.2,3.2-1.1,5.5-1.9,6.8,2,1.3,4,1.8,8.2,5,11.3A15.752,15.752,0,0,0,672,675c11.8,2.6,23.9-1.5,34.3-6.7a134.005,134.005,0,0,1,33.8-11.1c3.8-.8,7.6-1.3,11.4-1.8,2.5-.3,8.1.1,10.1-1.8,1.7-1.6,1.1-5.4,1.1-7.5C762.4,642.8,762.1,639.5,761.9,636.2ZM582,619.8Z"
                                fill="#ffe8e8" stroke="#929292" stroke-width="0.3" />
                        </g>
                        <g id="Layer_17">
                            <path id="Path_124" data-name="Path 124"
                                d="M789.5,435.7l14.9,14.8,8.9,15.1,7.3,10.9,7.9,12.7,8.6,17.6,7.9,9.7,14.6-5.2,15.2-5.7,9.2-2.1-20.9-45.4-16.8-23.7L834,422.8,819,416Z"
                                fill="#ddd6ea" stroke="#929292" stroke-miterlimit="10" stroke-width="0.3" />
                        </g>
                        <g id="水池">
                            <path id="Path_125" data-name="Path 125"
                                d="M1089.8,522.5c-.6-.7-1.4-3-.9-3.9.5-1,3.3-2.5,3.3-2.5a18.41,18.41,0,0,1,3.7-.2,10.4,10.4,0,0,1,2.4,1.2s1.6,1.8,1.2,3.3c-.5,2-3.2,3.9-4.1,3.6C1095.3,524.2,1090.8,523.7,1089.8,522.5Z"
                                fill="#c9fbff" stroke="#929292" stroke-miterlimit="10" stroke-width="0.3" />
                            <path id="Path_126" data-name="Path 126"
                                d="M1121.1,511.7l3.6-.9,2.6.6,2.2,1a7.142,7.142,0,0,1,1.3,1.7,10.971,10.971,0,0,1,0,2.6,14.276,14.276,0,0,1-1.4,2.8,18.2,18.2,0,0,1-2.6,2l-2.4.4-2.1-.1-2-.8-1.3-1.1-.5-1.4.1-1.9.9-2.6Z"
                                fill="#c9fbff" stroke="#929292" stroke-miterlimit="10" stroke-width="0.3" />
                            <path id="Path_127" data-name="Path 127"
                                d="M762.3,515.7c3.7-2.7,13-3.3,17.1-1.3,2.9,1.4,8.4,5.8,9.4,9,1.1,3.4,1,11.1-.8,14.2-1.7,2.9-7,7.2-10.1,8.2-3.4,1.1-11,2.3-14.3.8-2.4-1.1-6.6-5.3-7.4-7.9-.8-2.5-.3-8.8.2-11.4C756.9,523.9,759.6,517.6,762.3,515.7Z"
                                fill="#c9fbff" stroke="#929292" stroke-miterlimit="10" stroke-width="0.3" />
                        </g>
                        <g id="Layer_19">
                            <path id="Path_128" data-name="Path 128"
                                d="M1387.7,478.2c-5.2,3.7-11.2,23.1-11.2,23.1l3,6.7h12.1l17.2-1.2,10-.2L1407.6,484l-13.7-1.9-1.2-4.5C1392.6,477.6,1388.7,477.5,1387.7,478.2Z"
                                fill="#e4d6c5" stroke="#929292" stroke-miterlimit="10" stroke-width="0.3" />
                        </g>
                        <g id="Layer_15">
                            <path id="Path_129" data-name="Path 129"
                                d="M668.4,499.2a4.889,4.889,0,0,1,1.8-2.2,13.72,13.72,0,0,1,4.3-2.3,15.065,15.065,0,0,1,5.2-.3c2.3,0,4.6.2,6.8.4a8.752,8.752,0,0,1,1.6.2,10.928,10.928,0,0,1,1.7.5,17.112,17.112,0,0,1,5.4,2.7c1.2,1.1,3,2.7,3,4.4.1,2.4-4.3,5.3-6.3,6a30.911,30.911,0,0,1-7.4,1.2,43.383,43.383,0,0,1-5.2-.8,17.987,17.987,0,0,1-5-1.5c-1.6-.6-3.3-1-4.3-2.5a7.218,7.218,0,0,1-.9-2,7.1,7.1,0,0,1-.7-3.5Q668.4,499.35,668.4,499.2Z"
                                fill="#d5d6d2" stroke="#929292" stroke-miterlimit="10" stroke-width="0.3" />
                        </g>
                    </g>
                </svg>